<?xml version="1.0" encoding="us-ascii" standalone="no"?><svg xmlns="http://www.w3.org/2000/svg" xmlns:xlink="http://www.w3.org/1999/xlink" contentStyleType="text/css" height="2196px" preserveAspectRatio="none" style="width:1622px;height:2196px;background:#FFFFFF;" version="1.1" viewBox="0 0 1622 2196" width="1622px" zoomAndPan="magnify"><defs/><g><text fill="#000000" font-family="sans-serif" font-size="14" font-weight="bold" lengthAdjust="spacing" textLength="192" x="711.25" y="29.5332">Absence Checking Process</text><rect fill="#FFFFFF" height="741.0859" style="stroke:#181818;stroke-width:1.0;" width="10" x="405" y="197.9219"/><rect fill="#FFFFFF" height="463.9219" style="stroke:#181818;stroke-width:1.0;" width="10" x="405" y="1210.8203"/><rect fill="#FFFFFF" height="346.8672" style="stroke:#181818;stroke-width:1.0;" width="10" x="405" y="1749.4453"/><rect fill="#FFFFFF" height="680.3828" style="stroke:#181818;stroke-width:1.0;" width="10" x="717" y="228.2734"/><rect fill="#FFFFFF" height="359.8672" style="stroke:#181818;stroke-width:1.0;" width="10" x="717" y="1284.5234"/><rect fill="#FFFFFF" height="91.0547" style="stroke:#181818;stroke-width:1.0;" width="10" x="975" y="258.625"/><rect fill="none" height="152.7578" style="stroke:#000000;stroke-width:1.5;" width="838.5" x="654" y="364.6797"/><rect fill="none" height="196.1094" style="stroke:#000000;stroke-width:1.5;" width="951.5" x="654" y="622.4922"/><rect fill="none" height="79.0547" style="stroke:#000000;stroke-width:1.5;" width="1518.5" x="87" y="1102.4141"/><line style="stroke:#181818;stroke-width:0.5;stroke-dasharray:5.0,5.0;" x1="46" x2="46" y1="121.2188" y2="2114.3125"/><line style="stroke:#181818;stroke-width:0.5;stroke-dasharray:5.0,5.0;" x1="121" x2="121" y1="121.2188" y2="2114.3125"/><line style="stroke:#181818;stroke-width:0.5;stroke-dasharray:5.0,5.0;" x1="409.5" x2="409.5" y1="121.2188" y2="2114.3125"/><line style="stroke:#181818;stroke-width:0.5;stroke-dasharray:5.0,5.0;" x1="722" x2="722" y1="121.2188" y2="2114.3125"/><line style="stroke:#181818;stroke-width:0.5;stroke-dasharray:5.0,5.0;" x1="980" x2="980" y1="121.2188" y2="2114.3125"/><line style="stroke:#181818;stroke-width:0.5;stroke-dasharray:5.0,5.0;" x1="1119" x2="1119" y1="121.2188" y2="2114.3125"/><line style="stroke:#181818;stroke-width:0.5;stroke-dasharray:5.0,5.0;" x1="1273" x2="1273" y1="121.2188" y2="2114.3125"/><line style="stroke:#181818;stroke-width:0.5;stroke-dasharray:5.0,5.0;" x1="1448.5" x2="1448.5" y1="121.2188" y2="2114.3125"/><line style="stroke:#181818;stroke-width:0.5;stroke-dasharray:5.0,5.0;" x1="1543.5" x2="1543.5" y1="121.2188" y2="2114.3125"/><text fill="#000000" font-family="sans-serif" font-size="14" lengthAdjust="spacing" textLength="76" x="5" y="118.1426">School Staff</text><ellipse cx="46" cy="52.1094" fill="#E2E2F0" rx="8" ry="8" style="stroke:#181818;stroke-width:0.5;"/><path d="M46,60.1094 L46,87.1094 M33,68.1094 L59,68.1094 M46,87.1094 L33,102.1094 M46,87.1094 L59,102.1094 " fill="none" style="stroke:#181818;stroke-width:0.5;"/><text fill="#000000" font-family="sans-serif" font-size="14" lengthAdjust="spacing" textLength="76" x="5" y="2127.8457">School Staff</text><ellipse cx="46" cy="2139.4219" fill="#E2E2F0" rx="8" ry="8" style="stroke:#181818;stroke-width:0.5;"/><path d="M46,2147.4219 L46,2174.4219 M33,2155.4219 L59,2155.4219 M46,2174.4219 L33,2189.4219 M46,2174.4219 L59,2189.4219 " fill="none" style="stroke:#181818;stroke-width:0.5;"/><text fill="#000000" font-family="sans-serif" font-size="14" lengthAdjust="spacing" textLength="42" x="97" y="118.1426">Parent</text><ellipse cx="121" cy="52.1094" fill="#E2E2F0" rx="8" ry="8" style="stroke:#181818;stroke-width:0.5;"/><path d="M121,60.1094 L121,87.1094 M108,68.1094 L134,68.1094 M121,87.1094 L108,102.1094 M121,87.1094 L134,102.1094 " fill="none" style="stroke:#181818;stroke-width:0.5;"/><text fill="#000000" font-family="sans-serif" font-size="14" lengthAdjust="spacing" textLength="42" x="97" y="2127.8457">Parent</text><ellipse cx="121" cy="2139.4219" fill="#E2E2F0" rx="8" ry="8" style="stroke:#181818;stroke-width:0.5;"/><path d="M121,2147.4219 L121,2174.4219 M108,2155.4219 L134,2155.4219 M121,2174.4219 L108,2189.4219 M121,2174.4219 L134,2189.4219 " fill="none" style="stroke:#181818;stroke-width:0.5;"/><rect fill="#E2E2F0" height="31.6094" rx="2.5" ry="2.5" style="stroke:#181818;stroke-width:0.5;" width="131" x="344.5" y="88.6094"/><text fill="#000000" font-family="sans-serif" font-size="14" lengthAdjust="spacing" textLength="117" x="351.5" y="110.1426">AbsenceController</text><rect fill="#E2E2F0" height="31.6094" rx="2.5" ry="2.5" style="stroke:#181818;stroke-width:0.5;" width="131" x="344.5" y="2113.3125"/><text fill="#000000" font-family="sans-serif" font-size="14" lengthAdjust="spacing" textLength="117" x="351.5" y="2134.8457">AbsenceController</text><rect fill="#E2E2F0" height="31.6094" rx="2.5" ry="2.5" style="stroke:#181818;stroke-width:0.5;" width="116" x="664" y="88.6094"/><text fill="#000000" font-family="sans-serif" font-size="14" lengthAdjust="spacing" textLength="102" x="671" y="110.1426">AbsenceService</text><rect fill="#E2E2F0" height="31.6094" rx="2.5" ry="2.5" style="stroke:#181818;stroke-width:0.5;" width="116" x="664" y="2113.3125"/><text fill="#000000" font-family="sans-serif" font-size="14" lengthAdjust="spacing" textLength="102" x="671" y="2134.8457">AbsenceService</text><rect fill="#E2E2F0" height="31.6094" rx="2.5" ry="2.5" style="stroke:#181818;stroke-width:0.5;" width="122" x="919" y="88.6094"/><text fill="#000000" font-family="sans-serif" font-size="14" lengthAdjust="spacing" textLength="108" x="926" y="110.1426">GroupRepository</text><rect fill="#E2E2F0" height="31.6094" rx="2.5" ry="2.5" style="stroke:#181818;stroke-width:0.5;" width="122" x="919" y="2113.3125"/><text fill="#000000" font-family="sans-serif" font-size="14" lengthAdjust="spacing" textLength="108" x="926" y="2134.8457">GroupRepository</text><rect fill="#E2E2F0" height="31.6094" rx="2.5" ry="2.5" style="stroke:#181818;stroke-width:0.5;" width="137" x="1051" y="88.6094"/><text fill="#000000" font-family="sans-serif" font-size="14" lengthAdjust="spacing" textLength="123" x="1058" y="110.1426">AbsenceRepository</text><rect fill="#E2E2F0" height="31.6094" rx="2.5" ry="2.5" style="stroke:#181818;stroke-width:0.5;" width="137" x="1051" y="2113.3125"/><text fill="#000000" font-family="sans-serif" font-size="14" lengthAdjust="spacing" textLength="123" x="1058" y="2134.8457">AbsenceRepository</text><rect fill="#E2E2F0" height="31.6094" rx="2.5" ry="2.5" style="stroke:#181818;stroke-width:0.5;" width="150" x="1198" y="88.6094"/><text fill="#000000" font-family="sans-serif" font-size="14" lengthAdjust="spacing" textLength="136" x="1205" y="110.1426">ParentNotificationHub</text><rect fill="#E2E2F0" height="31.6094" rx="2.5" ry="2.5" style="stroke:#181818;stroke-width:0.5;" width="150" x="1198" y="2113.3125"/><text fill="#000000" font-family="sans-serif" font-size="14" lengthAdjust="spacing" textLength="136" x="1205" y="2134.8457">ParentNotificationHub</text><text fill="#000000" font-family="sans-serif" font-size="14" lengthAdjust="spacing" textLength="61" x="1415.5" y="118.1426">Database</text><path d="M1431,67.6094 C1431,57.6094 1449,57.6094 1449,57.6094 C1449,57.6094 1467,57.6094 1467,67.6094 L1467,93.6094 C1467,103.6094 1449,103.6094 1449,103.6094 C1449,103.6094 1431,103.6094 1431,93.6094 L1431,67.6094 " fill="#E2E2F0" style="stroke:#181818;stroke-width:1.5;"/><path d="M1431,67.6094 C1431,77.6094 1449,77.6094 1449,77.6094 C1449,77.6094 1467,77.6094 1467,67.6094 " fill="none" style="stroke:#181818;stroke-width:1.5;"/><text fill="#000000" font-family="sans-serif" font-size="14" lengthAdjust="spacing" textLength="61" x="1415.5" y="2127.8457">Database</text><path d="M1431,2140.9219 C1431,2130.9219 1449,2130.9219 1449,2130.9219 C1449,2130.9219 1467,2130.9219 1467,2140.9219 L1467,2166.9219 C1467,2176.9219 1449,2176.9219 1449,2176.9219 C1449,2176.9219 1431,2176.9219 1431,2166.9219 L1431,2140.9219 " fill="#E2E2F0" style="stroke:#181818;stroke-width:1.5;"/><path d="M1431,2140.9219 C1431,2150.9219 1449,2150.9219 1449,2150.9219 C1449,2150.9219 1467,2150.9219 1467,2140.9219 " fill="none" style="stroke:#181818;stroke-width:1.5;"/><rect fill="#E2E2F0" height="31.6094" rx="2.5" ry="2.5" style="stroke:#181818;stroke-width:0.5;" width="103" x="1492.5" y="88.6094"/><text fill="#000000" font-family="sans-serif" font-size="14" lengthAdjust="spacing" textLength="89" x="1499.5" y="110.1426">SignalR Client</text><rect fill="#E2E2F0" height="31.6094" rx="2.5" ry="2.5" style="stroke:#181818;stroke-width:0.5;" width="103" x="1492.5" y="2113.3125"/><text fill="#000000" font-family="sans-serif" font-size="14" lengthAdjust="spacing" textLength="89" x="1499.5" y="2134.8457">SignalR Client</text><rect fill="#FFFFFF" height="741.0859" style="stroke:#181818;stroke-width:1.0;" width="10" x="405" y="197.9219"/><rect fill="#FFFFFF" height="463.9219" style="stroke:#181818;stroke-width:1.0;" width="10" x="405" y="1210.8203"/><rect fill="#FFFFFF" height="346.8672" style="stroke:#181818;stroke-width:1.0;" width="10" x="405" y="1749.4453"/><rect fill="#FFFFFF" height="680.3828" style="stroke:#181818;stroke-width:1.0;" width="10" x="717" y="228.2734"/><rect fill="#FFFFFF" height="359.8672" style="stroke:#181818;stroke-width:1.0;" width="10" x="717" y="1284.5234"/><rect fill="#FFFFFF" height="91.0547" style="stroke:#181818;stroke-width:1.0;" width="10" x="975" y="258.625"/><rect fill="#EEEEEE" height="3" style="stroke:#EEEEEE;stroke-width:1.0;" width="1615.5" x="0" y="152.3945"/><line style="stroke:#000000;stroke-width:1.0;" x1="0" x2="1615.5" y1="152.3945" y2="152.3945"/><line style="stroke:#000000;stroke-width:1.0;" x1="0" x2="1615.5" y1="155.3945" y2="155.3945"/><rect fill="#EEEEEE" height="24.3516" style="stroke:#000000;stroke-width:2.0;" width="173" x="721.25" y="141.2188"/><text fill="#000000" font-family="sans-serif" font-size="13" font-weight="bold" lengthAdjust="spacing" textLength="155" x="727.25" y="158.7139">Mark Students as Absent</text><polygon fill="#181818" points="393,193.9219,403,197.9219,393,201.9219,397,197.9219" style="stroke:#181818;stroke-width:1.0;"/><line style="stroke:#181818;stroke-width:1.0;" x1="46" x2="399" y1="197.9219" y2="197.9219"/><text fill="#000000" font-family="sans-serif" font-size="13" lengthAdjust="spacing" textLength="246" x="53" y="193.0654">MarkAbsences(groupId, absentStudentIds)</text><polygon fill="#181818" points="705,224.2734,715,228.2734,705,232.2734,709,228.2734" style="stroke:#181818;stroke-width:1.0;"/><line style="stroke:#181818;stroke-width:1.0;" x1="415" x2="711" y1="228.2734" y2="228.2734"/><text fill="#000000" font-family="sans-serif" font-size="13" lengthAdjust="spacing" textLength="283" x="422" y="223.417">MarkAbsencesAsync(groupId, absentStudentIds)</text><polygon fill="#181818" points="963,254.625,973,258.625,963,262.625,967,258.625" style="stroke:#181818;stroke-width:1.0;"/><line style="stroke:#181818;stroke-width:1.0;" x1="727" x2="969" y1="258.625" y2="258.625"/><text fill="#000000" font-family="sans-serif" font-size="13" lengthAdjust="spacing" textLength="222" x="734" y="253.7686">GetGroupWithStudentsAsync(groupId)</text><polygon fill="#181818" points="1437,284.9766,1447,288.9766,1437,292.9766,1441,288.9766" style="stroke:#181818;stroke-width:1.0;"/><line style="stroke:#181818;stroke-width:1.0;" x1="985" x2="1443" y1="288.9766" y2="288.9766"/><text fill="#000000" font-family="sans-serif" font-size="13" lengthAdjust="spacing" textLength="181" x="992" y="284.1201">Query group data with students</text><polygon fill="#181818" points="996,315.3281,986,319.3281,996,323.3281,992,319.3281" style="stroke:#181818;stroke-width:1.0;"/><line style="stroke:#181818;stroke-width:1.0;stroke-dasharray:2.0,2.0;" x1="990" x2="1448" y1="319.3281" y2="319.3281"/><text fill="#000000" font-family="sans-serif" font-size="13" lengthAdjust="spacing" textLength="155" x="1002" y="314.4717">Return group with students</text><polygon fill="#181818" points="738,345.6797,728,349.6797,738,353.6797,734,349.6797" style="stroke:#181818;stroke-width:1.0;"/><line style="stroke:#181818;stroke-width:1.0;stroke-dasharray:2.0,2.0;" x1="732" x2="979" y1="349.6797" y2="349.6797"/><text fill="#000000" font-family="sans-serif" font-size="13" lengthAdjust="spacing" textLength="110" x="744" y="344.8232">Return group entity</text><path d="M654,364.6797 L727,364.6797 L727,373.0313 L717,383.0313 L654,383.0313 L654,364.6797 " fill="#EEEEEE" style="stroke:#000000;stroke-width:1.5;"/><rect fill="none" height="152.7578" style="stroke:#000000;stroke-width:1.5;" width="838.5" x="654" y="364.6797"/><text fill="#000000" font-family="sans-serif" font-size="13" font-weight="bold" lengthAdjust="spacing" textLength="28" x="669" y="379.1748">loop</text><text fill="#000000" font-family="sans-serif" font-size="11" font-weight="bold" lengthAdjust="spacing" textLength="155" x="742" y="378.0986">[For each absent student ID]</text><line style="stroke:#181818;stroke-width:1.0;" x1="727" x2="769" y1="405.3828" y2="405.3828"/><line style="stroke:#181818;stroke-width:1.0;" x1="769" x2="769" y1="405.3828" y2="418.3828"/><line style="stroke:#181818;stroke-width:1.0;" x1="728" x2="769" y1="418.3828" y2="418.3828"/><polygon fill="#181818" points="738,414.3828,728,418.3828,738,422.3828,734,418.3828" style="stroke:#181818;stroke-width:1.0;"/><text fill="#000000" font-family="sans-serif" font-size="13" lengthAdjust="spacing" textLength="156" x="734" y="400.5264">Create new Absence entity</text><polygon fill="#181818" points="1107.5,444.7344,1117.5,448.7344,1107.5,452.7344,1111.5,448.7344" style="stroke:#181818;stroke-width:1.0;"/><line style="stroke:#181818;stroke-width:1.0;" x1="727" x2="1113.5" y1="448.7344" y2="448.7344"/><text fill="#000000" font-family="sans-serif" font-size="13" lengthAdjust="spacing" textLength="168" x="734" y="443.8779">AddAbsenceAsync(absence)</text><polygon fill="#181818" points="1437,475.0859,1447,479.0859,1437,483.0859,1441,479.0859" style="stroke:#181818;stroke-width:1.0;"/><line style="stroke:#181818;stroke-width:1.0;" x1="1119.5" x2="1443" y1="479.0859" y2="479.0859"/><text fill="#000000" font-family="sans-serif" font-size="13" lengthAdjust="spacing" textLength="116" x="1126.5" y="474.2295">Add absence record</text><polygon fill="#181818" points="1130.5,505.4375,1120.5,509.4375,1130.5,513.4375,1126.5,509.4375" style="stroke:#181818;stroke-width:1.0;"/><line style="stroke:#181818;stroke-width:1.0;stroke-dasharray:2.0,2.0;" x1="1124.5" x2="1448" y1="509.4375" y2="509.4375"/><text fill="#000000" font-family="sans-serif" font-size="13" lengthAdjust="spacing" textLength="80" x="1136.5" y="504.5811">Record added</text><polygon fill="#181818" points="1107.5,542.7891,1117.5,546.7891,1107.5,550.7891,1111.5,546.7891" style="stroke:#181818;stroke-width:1.0;"/><line style="stroke:#181818;stroke-width:1.0;" x1="727" x2="1113.5" y1="546.7891" y2="546.7891"/><text fill="#000000" font-family="sans-serif" font-size="13" lengthAdjust="spacing" textLength="124" x="734" y="541.9326">SaveChangesAsync()</text><polygon fill="#181818" points="1437,573.1406,1447,577.1406,1437,581.1406,1441,577.1406" style="stroke:#181818;stroke-width:1.0;"/><line style="stroke:#181818;stroke-width:1.0;" x1="1119.5" x2="1443" y1="577.1406" y2="577.1406"/><text fill="#000000" font-family="sans-serif" font-size="13" lengthAdjust="spacing" textLength="122" x="1126.5" y="572.2842">Commit all absences</text><polygon fill="#181818" points="1130.5,603.4922,1120.5,607.4922,1130.5,611.4922,1126.5,607.4922" style="stroke:#181818;stroke-width:1.0;"/><line style="stroke:#181818;stroke-width:1.0;stroke-dasharray:2.0,2.0;" x1="1124.5" x2="1448" y1="607.4922" y2="607.4922"/><text fill="#000000" font-family="sans-serif" font-size="13" lengthAdjust="spacing" textLength="88" x="1136.5" y="602.6357">Changes saved</text><path d="M654,622.4922 L727,622.4922 L727,630.8438 L717,640.8438 L654,640.8438 L654,622.4922 " fill="#EEEEEE" style="stroke:#000000;stroke-width:1.5;"/><rect fill="none" height="196.1094" style="stroke:#000000;stroke-width:1.5;" width="951.5" x="654" y="622.4922"/><text fill="#000000" font-family="sans-serif" font-size="13" font-weight="bold" lengthAdjust="spacing" textLength="28" x="669" y="636.9873">loop</text><text fill="#000000" font-family="sans-serif" font-size="11" font-weight="bold" lengthAdjust="spacing" textLength="145" x="742" y="635.9111">[For each absence record]</text><line style="stroke:#181818;stroke-width:1.0;" x1="727" x2="769" y1="663.1953" y2="663.1953"/><line style="stroke:#181818;stroke-width:1.0;" x1="769" x2="769" y1="663.1953" y2="676.1953"/><line style="stroke:#181818;stroke-width:1.0;" x1="728" x2="769" y1="676.1953" y2="676.1953"/><polygon fill="#181818" points="738,672.1953,728,676.1953,738,680.1953,734,676.1953" style="stroke:#181818;stroke-width:1.0;"/><text fill="#000000" font-family="sans-serif" font-size="13" lengthAdjust="spacing" textLength="110" x="734" y="658.3389">Get student details</text><line style="stroke:#181818;stroke-width:1.0;" x1="727" x2="769" y1="706.5469" y2="706.5469"/><line style="stroke:#181818;stroke-width:1.0;" x1="769" x2="769" y1="706.5469" y2="719.5469"/><line style="stroke:#181818;stroke-width:1.0;" x1="728" x2="769" y1="719.5469" y2="719.5469"/><polygon fill="#181818" points="738,715.5469,728,719.5469,738,723.5469,734,719.5469" style="stroke:#181818;stroke-width:1.0;"/><text fill="#000000" font-family="sans-serif" font-size="13" lengthAdjust="spacing" textLength="77" x="734" y="701.6904">Get parent ID</text><polygon fill="#181818" points="1261,745.8984,1271,749.8984,1261,753.8984,1265,749.8984" style="stroke:#181818;stroke-width:1.0;"/><line style="stroke:#181818;stroke-width:1.0;" x1="727" x2="1267" y1="749.8984" y2="749.8984"/><text fill="#000000" font-family="sans-serif" font-size="13" lengthAdjust="spacing" textLength="510" x="734" y="745.042">Clients.Group("parent-{parentId}").SendAsync("ReceiveAbsenceNotification", notification)</text><polygon fill="#181818" points="1532,776.25,1542,780.25,1532,784.25,1536,780.25" style="stroke:#181818;stroke-width:1.0;"/><line style="stroke:#181818;stroke-width:1.0;" x1="1273" x2="1538" y1="780.25" y2="780.25"/><text fill="#000000" font-family="sans-serif" font-size="13" lengthAdjust="spacing" textLength="199" x="1280" y="775.3936">Push notification to specific parent</text><polygon fill="#181818" points="1107.5,806.6016,1117.5,810.6016,1107.5,814.6016,1111.5,810.6016" style="stroke:#181818;stroke-width:1.0;"/><line style="stroke:#181818;stroke-width:1.0;" x1="727" x2="1113.5" y1="810.6016" y2="810.6016"/><text fill="#000000" font-family="sans-serif" font-size="13" lengthAdjust="spacing" textLength="290" x="734" y="805.7451">UpdateAbsenceAsync(absence) - mark as notified</text><polygon fill="#181818" points="1107.5,843.9531,1117.5,847.9531,1107.5,851.9531,1111.5,847.9531" style="stroke:#181818;stroke-width:1.0;"/><line style="stroke:#181818;stroke-width:1.0;" x1="727" x2="1113.5" y1="847.9531" y2="847.9531"/><text fill="#000000" font-family="sans-serif" font-size="13" lengthAdjust="spacing" textLength="124" x="734" y="843.0967">SaveChangesAsync()</text><polygon fill="#181818" points="1437,874.3047,1447,878.3047,1437,882.3047,1441,878.3047" style="stroke:#181818;stroke-width:1.0;"/><line style="stroke:#181818;stroke-width:1.0;" x1="1119.5" x2="1443" y1="878.3047" y2="878.3047"/><text fill="#000000" font-family="sans-serif" font-size="13" lengthAdjust="spacing" textLength="126" x="1126.5" y="873.4482">Update notified status</text><polygon fill="#181818" points="426,904.6563,416,908.6563,426,912.6563,422,908.6563" style="stroke:#181818;stroke-width:1.0;"/><line style="stroke:#181818;stroke-width:1.0;stroke-dasharray:2.0,2.0;" x1="420" x2="721" y1="908.6563" y2="908.6563"/><text fill="#000000" font-family="sans-serif" font-size="13" lengthAdjust="spacing" textLength="91" x="432" y="903.7998">Return success</text><polygon fill="#181818" points="57,935.0078,47,939.0078,57,943.0078,53,939.0078" style="stroke:#181818;stroke-width:1.0;"/><line style="stroke:#181818;stroke-width:1.0;stroke-dasharray:2.0,2.0;" x1="51" x2="409" y1="939.0078" y2="939.0078"/><text fill="#000000" font-family="sans-serif" font-size="13" lengthAdjust="spacing" textLength="97" x="63" y="934.1514">Return OK result</text><rect fill="#EEEEEE" height="3" style="stroke:#EEEEEE;stroke-width:1.0;" width="1615.5" x="0" y="968.1836"/><line style="stroke:#000000;stroke-width:1.0;" x1="0" x2="1615.5" y1="968.1836" y2="968.1836"/><line style="stroke:#000000;stroke-width:1.0;" x1="0" x2="1615.5" y1="971.1836" y2="971.1836"/><rect fill="#EEEEEE" height="24.3516" style="stroke:#000000;stroke-width:2.0;" width="166" x="724.75" y="957.0078"/><text fill="#000000" font-family="sans-serif" font-size="13" font-weight="bold" lengthAdjust="spacing" textLength="148" x="730.75" y="974.5029">Parent Views Absences</text><polygon fill="#181818" points="1532,1009.7109,1542,1013.7109,1532,1017.7109,1536,1013.7109" style="stroke:#181818;stroke-width:1.0;"/><line style="stroke:#181818;stroke-width:1.0;" x1="121" x2="1538" y1="1013.7109" y2="1013.7109"/><text fill="#000000" font-family="sans-serif" font-size="13" lengthAdjust="spacing" textLength="88" x="128" y="1008.8545">Connect to hub</text><polygon fill="#181818" points="1284,1040.0625,1274,1044.0625,1284,1048.0625,1280,1044.0625" style="stroke:#181818;stroke-width:1.0;"/><line style="stroke:#181818;stroke-width:1.0;" x1="1278" x2="1543" y1="1044.0625" y2="1044.0625"/><text fill="#000000" font-family="sans-serif" font-size="13" lengthAdjust="spacing" textLength="124" x="1290" y="1039.2061">OnConnectedAsync()</text><line style="stroke:#181818;stroke-width:1.0;" x1="1273" x2="1315" y1="1074.4141" y2="1074.4141"/><line style="stroke:#181818;stroke-width:1.0;" x1="1315" x2="1315" y1="1074.4141" y2="1087.4141"/><line style="stroke:#181818;stroke-width:1.0;" x1="1274" x2="1315" y1="1087.4141" y2="1087.4141"/><polygon fill="#181818" points="1284,1083.4141,1274,1087.4141,1284,1091.4141,1280,1087.4141" style="stroke:#181818;stroke-width:1.0;"/><text fill="#000000" font-family="sans-serif" font-size="13" lengthAdjust="spacing" textLength="162" x="1280" y="1069.5576">Add to parent-specific group</text><path d="M87,1102.4141 L148,1102.4141 L148,1110.7656 L138,1120.7656 L87,1120.7656 L87,1102.4141 " fill="#EEEEEE" style="stroke:#000000;stroke-width:1.5;"/><rect fill="none" height="79.0547" style="stroke:#000000;stroke-width:1.5;" width="1518.5" x="87" y="1102.4141"/><text fill="#000000" font-family="sans-serif" font-size="13" font-weight="bold" lengthAdjust="spacing" textLength="16" x="102" y="1116.9092">alt</text><text fill="#000000" font-family="sans-serif" font-size="11" font-weight="bold" lengthAdjust="spacing" textLength="124" x="163" y="1115.833">[Real-time notification]</text><polygon fill="#181818" points="1532,1139.1172,1542,1143.1172,1532,1147.1172,1536,1143.1172" style="stroke:#181818;stroke-width:1.0;"/><line style="stroke:#181818;stroke-width:1.0;" x1="1273" x2="1538" y1="1143.1172" y2="1143.1172"/><text fill="#000000" font-family="sans-serif" font-size="13" lengthAdjust="spacing" textLength="149" x="1280" y="1138.2607">Send absence notification</text><polygon fill="#181818" points="132,1169.4688,122,1173.4688,132,1177.4688,128,1173.4688" style="stroke:#181818;stroke-width:1.0;"/><line style="stroke:#181818;stroke-width:1.0;stroke-dasharray:2.0,2.0;" x1="126" x2="1543" y1="1173.4688" y2="1173.4688"/><text fill="#000000" font-family="sans-serif" font-size="13" lengthAdjust="spacing" textLength="125" x="138" y="1168.6123">Display absence alert</text><polygon fill="#181818" points="393,1206.8203,403,1210.8203,393,1214.8203,397,1210.8203" style="stroke:#181818;stroke-width:1.0;"/><line style="stroke:#181818;stroke-width:1.0;" x1="121" x2="399" y1="1210.8203" y2="1210.8203"/><text fill="#000000" font-family="sans-serif" font-size="13" lengthAdjust="spacing" textLength="239" x="128" y="1205.9639">GetStudentAbsences(studentId, parentId)</text><line style="stroke:#181818;stroke-width:1.0;" x1="415" x2="457" y1="1241.1719" y2="1241.1719"/><line style="stroke:#181818;stroke-width:1.0;" x1="457" x2="457" y1="1241.1719" y2="1254.1719"/><line style="stroke:#181818;stroke-width:1.0;" x1="416" x2="457" y1="1254.1719" y2="1254.1719"/><polygon fill="#181818" points="426,1250.1719,416,1254.1719,426,1258.1719,422,1254.1719" style="stroke:#181818;stroke-width:1.0;"/><text fill="#000000" font-family="sans-serif" font-size="13" lengthAdjust="spacing" textLength="209" x="422" y="1236.3154">Validate user claims &amp; authorization</text><polygon fill="#181818" points="705,1280.5234,715,1284.5234,705,1288.5234,709,1284.5234" style="stroke:#181818;stroke-width:1.0;"/><line style="stroke:#181818;stroke-width:1.0;" x1="415" x2="711" y1="1284.5234" y2="1284.5234"/><text fill="#000000" font-family="sans-serif" font-size="13" lengthAdjust="spacing" textLength="276" x="422" y="1279.667">GetStudentAbsencesAsync(studentId, parentId)</text><polygon fill="#181818" points="968,1310.875,978,1314.875,968,1318.875,972,1314.875" style="stroke:#181818;stroke-width:1.0;"/><line style="stroke:#181818;stroke-width:1.0;" x1="727" x2="974" y1="1314.875" y2="1314.875"/><text fill="#000000" font-family="sans-serif" font-size="13" lengthAdjust="spacing" textLength="229" x="734" y="1310.0186">GetStudentWithParentAsync(studentId)</text><polygon fill="#181818" points="1437,1341.2266,1447,1345.2266,1437,1349.2266,1441,1345.2266" style="stroke:#181818;stroke-width:1.0;"/><line style="stroke:#181818;stroke-width:1.0;" x1="980" x2="1443" y1="1345.2266" y2="1345.2266"/><text fill="#000000" font-family="sans-serif" font-size="13" lengthAdjust="spacing" textLength="195" x="987" y="1340.3701">Query student with parent relation</text><polygon fill="#181818" points="991,1371.5781,981,1375.5781,991,1379.5781,987,1375.5781" style="stroke:#181818;stroke-width:1.0;"/><line style="stroke:#181818;stroke-width:1.0;stroke-dasharray:2.0,2.0;" x1="985" x2="1448" y1="1375.5781" y2="1375.5781"/><text fill="#000000" font-family="sans-serif" font-size="13" lengthAdjust="spacing" textLength="114" x="997" y="1370.7217">Return student data</text><polygon fill="#181818" points="738,1401.9297,728,1405.9297,738,1409.9297,734,1405.9297" style="stroke:#181818;stroke-width:1.0;"/><line style="stroke:#181818;stroke-width:1.0;stroke-dasharray:2.0,2.0;" x1="732" x2="979" y1="1405.9297" y2="1405.9297"/><text fill="#000000" font-family="sans-serif" font-size="13" lengthAdjust="spacing" textLength="121" x="744" y="1401.0732">Return student entity</text><line style="stroke:#181818;stroke-width:1.0;" x1="727" x2="769" y1="1436.2813" y2="1436.2813"/><line style="stroke:#181818;stroke-width:1.0;" x1="769" x2="769" y1="1436.2813" y2="1449.2813"/><line style="stroke:#181818;stroke-width:1.0;" x1="728" x2="769" y1="1449.2813" y2="1449.2813"/><polygon fill="#181818" points="738,1445.2813,728,1449.2813,738,1453.2813,734,1449.2813" style="stroke:#181818;stroke-width:1.0;"/><text fill="#000000" font-family="sans-serif" font-size="13" lengthAdjust="spacing" textLength="143" x="734" y="1431.4248">Verify parent relationship</text><polygon fill="#181818" points="1107.5,1475.6328,1117.5,1479.6328,1107.5,1483.6328,1111.5,1479.6328" style="stroke:#181818;stroke-width:1.0;"/><line style="stroke:#181818;stroke-width:1.0;" x1="727" x2="1113.5" y1="1479.6328" y2="1479.6328"/><text fill="#000000" font-family="sans-serif" font-size="13" lengthAdjust="spacing" textLength="248" x="734" y="1474.7764">GetAbsencesByStudentIdAsync(studentId)</text><polygon fill="#181818" points="1437,1505.9844,1447,1509.9844,1437,1513.9844,1441,1509.9844" style="stroke:#181818;stroke-width:1.0;"/><line style="stroke:#181818;stroke-width:1.0;" x1="1119.5" x2="1443" y1="1509.9844" y2="1509.9844"/><text fill="#000000" font-family="sans-serif" font-size="13" lengthAdjust="spacing" textLength="160" x="1126.5" y="1505.1279">Query absences for student</text><polygon fill="#181818" points="1130.5,1536.3359,1120.5,1540.3359,1130.5,1544.3359,1126.5,1540.3359" style="stroke:#181818;stroke-width:1.0;"/><line style="stroke:#181818;stroke-width:1.0;stroke-dasharray:2.0,2.0;" x1="1124.5" x2="1448" y1="1540.3359" y2="1540.3359"/><text fill="#000000" font-family="sans-serif" font-size="13" lengthAdjust="spacing" textLength="138" x="1136.5" y="1535.4795">Return absence records</text><polygon fill="#181818" points="738,1566.6875,728,1570.6875,738,1574.6875,734,1570.6875" style="stroke:#181818;stroke-width:1.0;"/><line style="stroke:#181818;stroke-width:1.0;stroke-dasharray:2.0,2.0;" x1="732" x2="1118.5" y1="1570.6875" y2="1570.6875"/><text fill="#000000" font-family="sans-serif" font-size="13" lengthAdjust="spacing" textLength="119" x="744" y="1565.8311">Return absences list</text><line style="stroke:#181818;stroke-width:1.0;" x1="727" x2="769" y1="1601.0391" y2="1601.0391"/><line style="stroke:#181818;stroke-width:1.0;" x1="769" x2="769" y1="1601.0391" y2="1614.0391"/><line style="stroke:#181818;stroke-width:1.0;" x1="728" x2="769" y1="1614.0391" y2="1614.0391"/><polygon fill="#181818" points="738,1610.0391,728,1614.0391,738,1618.0391,734,1614.0391" style="stroke:#181818;stroke-width:1.0;"/><text fill="#000000" font-family="sans-serif" font-size="13" lengthAdjust="spacing" textLength="160" x="734" y="1596.1826">Map to StudentAbsenceDto</text><polygon fill="#181818" points="426,1640.3906,416,1644.3906,426,1648.3906,422,1644.3906" style="stroke:#181818;stroke-width:1.0;"/><line style="stroke:#181818;stroke-width:1.0;stroke-dasharray:2.0,2.0;" x1="420" x2="721" y1="1644.3906" y2="1644.3906"/><text fill="#000000" font-family="sans-serif" font-size="13" lengthAdjust="spacing" textLength="158" x="432" y="1639.5342">Return absence information</text><polygon fill="#181818" points="132,1670.7422,122,1674.7422,132,1678.7422,128,1674.7422" style="stroke:#181818;stroke-width:1.0;"/><line style="stroke:#181818;stroke-width:1.0;stroke-dasharray:2.0,2.0;" x1="126" x2="409" y1="1674.7422" y2="1674.7422"/><text fill="#000000" font-family="sans-serif" font-size="13" lengthAdjust="spacing" textLength="178" x="138" y="1669.8857">Return formatted absence data</text><rect fill="#EEEEEE" height="3" style="stroke:#EEEEEE;stroke-width:1.0;" width="1615.5" x="0" y="1703.918"/><line style="stroke:#000000;stroke-width:1.0;" x1="0" x2="1615.5" y1="1703.918" y2="1703.918"/><line style="stroke:#000000;stroke-width:1.0;" x1="0" x2="1615.5" y1="1706.918" y2="1706.918"/><rect fill="#EEEEEE" height="24.3516" style="stroke:#000000;stroke-width:2.0;" width="182" x="716.75" y="1692.7422"/><text fill="#000000" font-family="sans-serif" font-size="13" font-weight="bold" lengthAdjust="spacing" textLength="164" x="722.75" y="1710.2373">Justify Absence (Optional)</text><polygon fill="#181818" points="393,1745.4453,403,1749.4453,393,1753.4453,397,1749.4453" style="stroke:#181818;stroke-width:1.0;"/><line style="stroke:#181818;stroke-width:1.0;" x1="46" x2="399" y1="1749.4453" y2="1749.4453"/><text fill="#000000" font-family="sans-serif" font-size="13" lengthAdjust="spacing" textLength="340" x="53" y="1744.5889">UpdateAbsenceJustification(absenceId, isJustified, remark)</text><polygon fill="#181818" points="1107.5,1775.7969,1117.5,1779.7969,1107.5,1783.7969,1111.5,1779.7969" style="stroke:#181818;stroke-width:1.0;"/><line style="stroke:#181818;stroke-width:1.0;" x1="415" x2="1113.5" y1="1779.7969" y2="1779.7969"/><text fill="#000000" font-family="sans-serif" font-size="13" lengthAdjust="spacing" textLength="202" x="422" y="1774.9404">GetAbsenceByIdAsync(absenceId)</text><polygon fill="#181818" points="1437,1806.1484,1447,1810.1484,1437,1814.1484,1441,1810.1484" style="stroke:#181818;stroke-width:1.0;"/><line style="stroke:#181818;stroke-width:1.0;" x1="1119.5" x2="1443" y1="1810.1484" y2="1810.1484"/><text fill="#000000" font-family="sans-serif" font-size="13" lengthAdjust="spacing" textLength="136" x="1126.5" y="1805.292">Query specific absence</text><polygon fill="#181818" points="1130.5,1836.5,1120.5,1840.5,1130.5,1844.5,1126.5,1840.5" style="stroke:#181818;stroke-width:1.0;"/><line style="stroke:#181818;stroke-width:1.0;stroke-dasharray:2.0,2.0;" x1="1124.5" x2="1448" y1="1840.5" y2="1840.5"/><text fill="#000000" font-family="sans-serif" font-size="13" lengthAdjust="spacing" textLength="131" x="1136.5" y="1835.6436">Return absence record</text><polygon fill="#181818" points="426,1866.8516,416,1870.8516,426,1874.8516,422,1870.8516" style="stroke:#181818;stroke-width:1.0;"/><line style="stroke:#181818;stroke-width:1.0;stroke-dasharray:2.0,2.0;" x1="420" x2="1118.5" y1="1870.8516" y2="1870.8516"/><text fill="#000000" font-family="sans-serif" font-size="13" lengthAdjust="spacing" textLength="127" x="432" y="1865.9951">Return absence entity</text><line style="stroke:#181818;stroke-width:1.0;" x1="415" x2="457" y1="1901.2031" y2="1901.2031"/><line style="stroke:#181818;stroke-width:1.0;" x1="457" x2="457" y1="1901.2031" y2="1914.2031"/><line style="stroke:#181818;stroke-width:1.0;" x1="416" x2="457" y1="1914.2031" y2="1914.2031"/><polygon fill="#181818" points="426,1910.2031,416,1914.2031,426,1918.2031,422,1914.2031" style="stroke:#181818;stroke-width:1.0;"/><text fill="#000000" font-family="sans-serif" font-size="13" lengthAdjust="spacing" textLength="260" x="422" y="1896.3467">Update absence justification status &amp; remark</text><polygon fill="#181818" points="1107.5,1940.5547,1117.5,1944.5547,1107.5,1948.5547,1111.5,1944.5547" style="stroke:#181818;stroke-width:1.0;"/><line style="stroke:#181818;stroke-width:1.0;" x1="415" x2="1113.5" y1="1944.5547" y2="1944.5547"/><text fill="#000000" font-family="sans-serif" font-size="13" lengthAdjust="spacing" textLength="186" x="422" y="1939.6982">UpdateAbsenceAsync(absence)</text><polygon fill="#181818" points="1437,1970.9063,1447,1974.9063,1437,1978.9063,1441,1974.9063" style="stroke:#181818;stroke-width:1.0;"/><line style="stroke:#181818;stroke-width:1.0;" x1="1119.5" x2="1443" y1="1974.9063" y2="1974.9063"/><text fill="#000000" font-family="sans-serif" font-size="13" lengthAdjust="spacing" textLength="81" x="1126.5" y="1970.0498">Update record</text><polygon fill="#181818" points="1107.5,2001.2578,1117.5,2005.2578,1107.5,2009.2578,1111.5,2005.2578" style="stroke:#181818;stroke-width:1.0;"/><line style="stroke:#181818;stroke-width:1.0;" x1="415" x2="1113.5" y1="2005.2578" y2="2005.2578"/><text fill="#000000" font-family="sans-serif" font-size="13" lengthAdjust="spacing" textLength="124" x="422" y="2000.4014">SaveChangesAsync()</text><polygon fill="#181818" points="1437,2031.6094,1447,2035.6094,1437,2039.6094,1441,2035.6094" style="stroke:#181818;stroke-width:1.0;"/><line style="stroke:#181818;stroke-width:1.0;" x1="1119.5" x2="1443" y1="2035.6094" y2="2035.6094"/><text fill="#000000" font-family="sans-serif" font-size="13" lengthAdjust="spacing" textLength="98" x="1126.5" y="2030.7529">Commit changes</text><polygon fill="#181818" points="1130.5,2061.9609,1120.5,2065.9609,1130.5,2069.9609,1126.5,2065.9609" style="stroke:#181818;stroke-width:1.0;"/><line style="stroke:#181818;stroke-width:1.0;stroke-dasharray:2.0,2.0;" x1="1124.5" x2="1448" y1="2065.9609" y2="2065.9609"/><text fill="#000000" font-family="sans-serif" font-size="13" lengthAdjust="spacing" textLength="94" x="1136.5" y="2061.1045">Save successful</text><polygon fill="#181818" points="57,2092.3125,47,2096.3125,57,2100.3125,53,2096.3125" style="stroke:#181818;stroke-width:1.0;"/><line style="stroke:#181818;stroke-width:1.0;stroke-dasharray:2.0,2.0;" x1="51" x2="409" y1="2096.3125" y2="2096.3125"/><text fill="#000000" font-family="sans-serif" font-size="13" lengthAdjust="spacing" textLength="183" x="63" y="2091.4561">Return updated absence details</text><!--SRC=[hLRHRkis37tNLn1v61gWkHyGe0EQ1BlhXhjs3TRxhDfAhLt5DYIvHJRitqT9b2Adicy7h2-rBVA8F2GFmolRQLZigwRh5EmjFnmMm4ruOZoSFd0jMkk_XqVMSsrb9NlUMbZSFXlHLcBRjLPtIWdjBS-lHUkzqA-o4k6oy3os-woxeNyKVMSa1d7oXkbR4VB2EFiwDWyv_DPPUP0Ljx9hVnwUlGl-PpMt_9aR0OiTFVcZtMOCifSlBLUFi5KoSaEV6BFIAX7lXsqZgc-oVO47tLN26CPkRk0Brz-GvA56PvEYjN1pmvZd7bO_PXIklGCXcgiNnyDTVGtSUn7ENMsMhcJobLkHytz-TAZ4zXZorfpQwaEuiLZqto6cigpXix3-xQkqJKnlX9qXdQkPdXpQRhE6tmUXJ-1Tm1K4tX0F306otGPMutiVXHrqInvZummyptxaWORIdbWj2i4nrNKz_8I3WASDKHFXuMx70FyoDj8DMoqSKYlUKY_GFHSUMQUkuRQkwJtmniFBqZjbbf4gj0Uo0IsgJjVUaYWQGJ_wO-1rBMecsfgngI3s_5Li6zw-nCvOiiBLs-vub1QuKZ62L9eH6Y61GTIwoESuzXAPs5Y9yrfOBfMPjUtza1VAWpE-fgardtoLhnR1UFLt-7zN_xDOVjeZGI7t1V8cvAkWd7BXM5n3cxs68k4DFfmW1sju64mpCWFRWUb5vJvGeBCjyKUFCo2ANG4hE3efGGK9D_m_bGqt9aXadjl1d44ln8bcoGoL5xXiZA9Qv1Bak74Ib_pkVyNgcq7Pt3FJBoUOGRJXIOgt9Et6ooMTv8oZRoigwtXkKDAZLiVgtxTa8Eh80TNC7xk9GazgYbGehnICSMKnRgvMLXx5gAp5uhisIZt-pZf5XYuXZpNifEaLFoKdZXJOKDHpgZdxsEuajMb1cAZSrn1x-YEh8KTzuahw9XWC7bQAowE17u0Fjkcq_2laCB5PtaSKU9uFA_RAz6eXKBTS0XKNiCkfJHALmsy6aWOjL4XYSfialS4Dz9qr4ar9u5b9bfw4beVJvVMcaVtqk6BIaSBDAUtZTsaNHZWa7dKP3gYtvC3Aky7dCLPZCmOkv9tmbJIsdFONthjn6ZV4pdRVKvCOYcmnzcCeLK5PBgKbZX6X15-Sz8JdgpajDByCnheonPLzTT-xgxbQJlyu6mbq0A0fZqBjMbuQEXBueeNJxOyCvKG_R4wn3z8LCtsGL8oCFzu3xrfWfbIn-wTLXHPBTFWpvugs38fC86UEXvcLEBFFAACPtF_qmwSAXaKk7L1SY8T1pI_0mOUNjIZzm2btwRy0]--></g></svg>