<?xml version="1.0" encoding="us-ascii" standalone="no"?><svg xmlns="http://www.w3.org/2000/svg" xmlns:xlink="http://www.w3.org/1999/xlink" contentStyleType="text/css" height="1943px" preserveAspectRatio="none" style="width:1601px;height:1943px;background:#FFFFFF;" version="1.1" viewBox="0 0 1601 1943" width="1601px" zoomAndPan="magnify"><defs/><g><text fill="#000000" font-family="sans-serif" font-size="14" font-weight="bold" lengthAdjust="spacing" textLength="438" x="577.75" y="29.5332">File Upload Process - Template Download, Fill, and Submission</text><rect fill="#FFFFFF" height="137.7578" style="stroke:#181818;stroke-width:1.0;" width="10" x="334" y="197.9219"/><rect fill="#FFFFFF" height="1329.1953" style="stroke:#181818;stroke-width:1.0;" width="10" x="334" y="514.4375"/><rect fill="#FFFFFF" height="1149.0859" style="stroke:#181818;stroke-width:1.0;" width="10" x="720" y="647.8438"/><rect fill="#E9967A" height="463.9219" style="stroke:#181818;stroke-width:1.0;" width="10" x="725" y="1179.1172"/><rect fill="#FFFFFF" height="257.8125" style="stroke:#181818;stroke-width:1.0;" width="10" x="1026" y="1288.1719"/><rect fill="#FFFFFF" height="77.0547" style="stroke:#181818;stroke-width:1.0;" width="10" x="1203" y="228.2734"/><rect fill="#FFFFFF" height="117.0547" style="stroke:#181818;stroke-width:1.0;" width="10" x="1203" y="782.25"/><rect fill="#FFFFFF" height="30.3516" style="stroke:#181818;stroke-width:1.0;" width="10" x="1502" y="1478.2813"/><rect fill="none" height="809.9219" style="stroke:#000000;stroke-width:1.5;" width="938" x="646.5" y="957.6563"/><rect fill="none" height="734.2188" style="stroke:#000000;stroke-width:1.5;" width="918" x="656.5" y="1026.3594"/><rect fill="none" height="183.1094" style="stroke:#000000;stroke-width:1.5;" width="598.5" x="966" y="1333.5234"/><line style="stroke:#181818;stroke-width:0.5;stroke-dasharray:5.0,5.0;" x1="51" x2="51" y1="121.2188" y2="1861.6328"/><line style="stroke:#181818;stroke-width:0.5;stroke-dasharray:5.0,5.0;" x1="339" x2="339" y1="121.2188" y2="1861.6328"/><line style="stroke:#181818;stroke-width:0.5;stroke-dasharray:5.0,5.0;" x1="724.5" x2="724.5" y1="121.2188" y2="1861.6328"/><line style="stroke:#181818;stroke-width:0.5;stroke-dasharray:5.0,5.0;" x1="1031" x2="1031" y1="121.2188" y2="1861.6328"/><line style="stroke:#181818;stroke-width:0.5;stroke-dasharray:5.0,5.0;" x1="1207.5" x2="1207.5" y1="121.2188" y2="1861.6328"/><line style="stroke:#181818;stroke-width:0.5;stroke-dasharray:5.0,5.0;" x1="1415.5" x2="1415.5" y1="121.2188" y2="1861.6328"/><line style="stroke:#181818;stroke-width:0.5;stroke-dasharray:5.0,5.0;" x1="1506.5" x2="1506.5" y1="121.2188" y2="1861.6328"/><text fill="#000000" font-family="sans-serif" font-size="14" lengthAdjust="spacing" textLength="86" x="5" y="118.1426">School Admin</text><ellipse cx="51" cy="52.1094" fill="#E2E2F0" rx="8" ry="8" style="stroke:#181818;stroke-width:0.5;"/><path d="M51,60.1094 L51,87.1094 M38,68.1094 L64,68.1094 M51,87.1094 L38,102.1094 M51,87.1094 L64,102.1094 " fill="none" style="stroke:#181818;stroke-width:0.5;"/><text fill="#000000" font-family="sans-serif" font-size="14" lengthAdjust="spacing" textLength="86" x="5" y="1875.166">School Admin</text><ellipse cx="51" cy="1886.7422" fill="#E2E2F0" rx="8" ry="8" style="stroke:#181818;stroke-width:0.5;"/><path d="M51,1894.7422 L51,1921.7422 M38,1902.7422 L64,1902.7422 M51,1921.7422 L38,1936.7422 M51,1921.7422 L64,1936.7422 " fill="none" style="stroke:#181818;stroke-width:0.5;"/><rect fill="#E2E2F0" height="31.6094" rx="2.5" ry="2.5" style="stroke:#181818;stroke-width:0.5;" width="132" x="273" y="88.6094"/><text fill="#000000" font-family="sans-serif" font-size="14" lengthAdjust="spacing" textLength="118" x="280" y="110.1426">StudentsController</text><rect fill="#E2E2F0" height="31.6094" rx="2.5" ry="2.5" style="stroke:#181818;stroke-width:0.5;" width="132" x="273" y="1860.6328"/><text fill="#000000" font-family="sans-serif" font-size="14" lengthAdjust="spacing" textLength="118" x="280" y="1882.166">StudentsController</text><rect fill="#E2E2F0" height="31.6094" rx="2.5" ry="2.5" style="stroke:#181818;stroke-width:0.5;" width="117" x="666.5" y="88.6094"/><text fill="#000000" font-family="sans-serif" font-size="14" lengthAdjust="spacing" textLength="103" x="673.5" y="110.1426">StudentServices</text><rect fill="#E2E2F0" height="31.6094" rx="2.5" ry="2.5" style="stroke:#181818;stroke-width:0.5;" width="117" x="666.5" y="1860.6328"/><text fill="#000000" font-family="sans-serif" font-size="14" lengthAdjust="spacing" textLength="103" x="673.5" y="1882.166">StudentServices</text><rect fill="#E2E2F0" height="31.6094" rx="2.5" ry="2.5" style="stroke:#181818;stroke-width:0.5;" width="110" x="976" y="88.6094"/><text fill="#000000" font-family="sans-serif" font-size="14" lengthAdjust="spacing" textLength="96" x="983" y="110.1426">ParentServices</text><rect fill="#E2E2F0" height="31.6094" rx="2.5" ry="2.5" style="stroke:#181818;stroke-width:0.5;" width="110" x="976" y="1860.6328"/><text fill="#000000" font-family="sans-serif" font-size="14" lengthAdjust="spacing" textLength="96" x="983" y="1882.166">ParentServices</text><rect fill="#E2E2F0" height="31.6094" rx="2.5" ry="2.5" style="stroke:#181818;stroke-width:0.5;" width="79" x="1168.5" y="88.6094"/><text fill="#000000" font-family="sans-serif" font-size="14" lengthAdjust="spacing" textLength="65" x="1175.5" y="110.1426">CsvHelper</text><rect fill="#E2E2F0" height="31.6094" rx="2.5" ry="2.5" style="stroke:#181818;stroke-width:0.5;" width="79" x="1168.5" y="1860.6328"/><text fill="#000000" font-family="sans-serif" font-size="14" lengthAdjust="spacing" textLength="65" x="1175.5" y="1882.166">CsvHelper</text><text fill="#000000" font-family="sans-serif" font-size="14" lengthAdjust="spacing" textLength="61" x="1382.5" y="118.1426">Database</text><path d="M1398,67.6094 C1398,57.6094 1416,57.6094 1416,57.6094 C1416,57.6094 1434,57.6094 1434,67.6094 L1434,93.6094 C1434,103.6094 1416,103.6094 1416,103.6094 C1416,103.6094 1398,103.6094 1398,93.6094 L1398,67.6094 " fill="#E2E2F0" style="stroke:#181818;stroke-width:1.5;"/><path d="M1398,67.6094 C1398,77.6094 1416,77.6094 1416,77.6094 C1416,77.6094 1434,77.6094 1434,67.6094 " fill="none" style="stroke:#181818;stroke-width:1.5;"/><text fill="#000000" font-family="sans-serif" font-size="14" lengthAdjust="spacing" textLength="61" x="1382.5" y="1875.166">Database</text><path d="M1398,1888.2422 C1398,1878.2422 1416,1878.2422 1416,1878.2422 C1416,1878.2422 1434,1878.2422 1434,1888.2422 L1434,1914.2422 C1434,1924.2422 1416,1924.2422 1416,1924.2422 C1416,1924.2422 1398,1924.2422 1398,1914.2422 L1398,1888.2422 " fill="#E2E2F0" style="stroke:#181818;stroke-width:1.5;"/><path d="M1398,1888.2422 C1398,1898.2422 1416,1898.2422 1416,1898.2422 C1416,1898.2422 1434,1898.2422 1434,1888.2422 " fill="none" style="stroke:#181818;stroke-width:1.5;"/><rect fill="#E2E2F0" height="31.6094" rx="2.5" ry="2.5" style="stroke:#181818;stroke-width:0.5;" width="95" x="1459.5" y="88.6094"/><text fill="#000000" font-family="sans-serif" font-size="14" lengthAdjust="spacing" textLength="81" x="1466.5" y="110.1426">EmailService</text><rect fill="#E2E2F0" height="31.6094" rx="2.5" ry="2.5" style="stroke:#181818;stroke-width:0.5;" width="95" x="1459.5" y="1860.6328"/><text fill="#000000" font-family="sans-serif" font-size="14" lengthAdjust="spacing" textLength="81" x="1466.5" y="1882.166">EmailService</text><rect fill="#FFFFFF" height="137.7578" style="stroke:#181818;stroke-width:1.0;" width="10" x="334" y="197.9219"/><rect fill="#FFFFFF" height="1329.1953" style="stroke:#181818;stroke-width:1.0;" width="10" x="334" y="514.4375"/><rect fill="#FFFFFF" height="1149.0859" style="stroke:#181818;stroke-width:1.0;" width="10" x="720" y="647.8438"/><rect fill="#E9967A" height="463.9219" style="stroke:#181818;stroke-width:1.0;" width="10" x="725" y="1179.1172"/><rect fill="#FFFFFF" height="257.8125" style="stroke:#181818;stroke-width:1.0;" width="10" x="1026" y="1288.1719"/><rect fill="#FFFFFF" height="77.0547" style="stroke:#181818;stroke-width:1.0;" width="10" x="1203" y="228.2734"/><rect fill="#FFFFFF" height="117.0547" style="stroke:#181818;stroke-width:1.0;" width="10" x="1203" y="782.25"/><rect fill="#FFFFFF" height="30.3516" style="stroke:#181818;stroke-width:1.0;" width="10" x="1502" y="1478.2813"/><rect fill="#EEEEEE" height="3" style="stroke:#EEEEEE;stroke-width:1.0;" width="1594.5" x="0" y="152.3945"/><line style="stroke:#000000;stroke-width:1.0;" x1="0" x2="1594.5" y1="152.3945" y2="152.3945"/><line style="stroke:#000000;stroke-width:1.0;" x1="0" x2="1594.5" y1="155.3945" y2="155.3945"/><rect fill="#EEEEEE" height="24.3516" style="stroke:#000000;stroke-width:2.0;" width="146" x="724.25" y="141.2188"/><text fill="#000000" font-family="sans-serif" font-size="13" font-weight="bold" lengthAdjust="spacing" textLength="128" x="730.25" y="158.7139">Template Download</text><polygon fill="#181818" points="322,193.9219,332,197.9219,322,201.9219,326,197.9219" style="stroke:#181818;stroke-width:1.0;"/><line style="stroke:#181818;stroke-width:1.0;" x1="51" x2="328" y1="197.9219" y2="197.9219"/><text fill="#000000" font-family="sans-serif" font-size="13" lengthAdjust="spacing" textLength="118" x="58" y="193.0654">GetImportTemplate()</text><polygon fill="#181818" points="1191,224.2734,1201,228.2734,1191,232.2734,1195,228.2734" style="stroke:#181818;stroke-width:1.0;"/><line style="stroke:#181818;stroke-width:1.0;" x1="344" x2="1197" y1="228.2734" y2="228.2734"/><text fill="#000000" font-family="sans-serif" font-size="13" lengthAdjust="spacing" textLength="108" x="351" y="223.417">Create CSV Writer</text><polygon fill="#181818" points="1191,270.9766,1201,274.9766,1191,278.9766,1195,274.9766" style="stroke:#181818;stroke-width:1.0;"/><line style="stroke:#181818;stroke-width:1.0;" x1="344" x2="1197" y1="274.9766" y2="274.9766"/><text fill="#000000" font-family="sans-serif" font-size="13" lengthAdjust="spacing" textLength="105" x="351" y="253.7686">Write Header Row</text><text fill="#000000" font-family="sans-serif" font-size="13" lengthAdjust="spacing" textLength="170" x="351" y="270.1201">(StudentCsvRecord Columns)</text><polygon fill="#181818" points="355,301.3281,345,305.3281,355,309.3281,351,305.3281" style="stroke:#181818;stroke-width:1.0;"/><line style="stroke:#181818;stroke-width:1.0;stroke-dasharray:2.0,2.0;" x1="349" x2="1207" y1="305.3281" y2="305.3281"/><text fill="#000000" font-family="sans-serif" font-size="13" lengthAdjust="spacing" textLength="58" x="361" y="300.4717">CSV Data</text><polygon fill="#181818" points="62,331.6797,52,335.6797,62,339.6797,58,335.6797" style="stroke:#181818;stroke-width:1.0;"/><line style="stroke:#181818;stroke-width:1.0;stroke-dasharray:2.0,2.0;" x1="56" x2="338" y1="335.6797" y2="335.6797"/><text fill="#000000" font-family="sans-serif" font-size="13" lengthAdjust="spacing" textLength="202" x="68" y="330.8232">Return student-import-template.csv</text><rect fill="#EEEEEE" height="3" style="stroke:#EEEEEE;stroke-width:1.0;" width="1594.5" x="0" y="364.8555"/><line style="stroke:#000000;stroke-width:1.0;" x1="0" x2="1594.5" y1="364.8555" y2="364.8555"/><line style="stroke:#000000;stroke-width:1.0;" x1="0" x2="1594.5" y1="367.8555" y2="367.8555"/><rect fill="#EEEEEE" height="24.3516" style="stroke:#000000;stroke-width:2.0;" width="122" x="736.25" y="353.6797"/><text fill="#000000" font-family="sans-serif" font-size="13" font-weight="bold" lengthAdjust="spacing" textLength="104" x="742.25" y="371.1748">Template Filling</text><line style="stroke:#181818;stroke-width:1.0;" x1="51" x2="93" y1="426.7344" y2="426.7344"/><line style="stroke:#181818;stroke-width:1.0;" x1="93" x2="93" y1="426.7344" y2="439.7344"/><line style="stroke:#181818;stroke-width:1.0;" x1="52" x2="93" y1="439.7344" y2="439.7344"/><polygon fill="#181818" points="62,435.7344,52,439.7344,62,443.7344,58,439.7344" style="stroke:#181818;stroke-width:1.0;"/><text fill="#000000" font-family="sans-serif" font-size="13" lengthAdjust="spacing" textLength="174" x="58" y="405.5264">Fill template with student data</text><text fill="#000000" font-family="sans-serif" font-size="13" lengthAdjust="spacing" textLength="261" x="58" y="421.8779">(Names, Birth Info, Contact, Parent Info, etc.)</text><rect fill="#EEEEEE" height="3" style="stroke:#EEEEEE;stroke-width:1.0;" width="1594.5" x="0" y="468.9102"/><line style="stroke:#000000;stroke-width:1.0;" x1="0" x2="1594.5" y1="468.9102" y2="468.9102"/><line style="stroke:#000000;stroke-width:1.0;" x1="0" x2="1594.5" y1="471.9102" y2="471.9102"/><rect fill="#EEEEEE" height="24.3516" style="stroke:#000000;stroke-width:2.0;" width="150" x="722.25" y="457.7344"/><text fill="#000000" font-family="sans-serif" font-size="13" font-weight="bold" lengthAdjust="spacing" textLength="132" x="728.25" y="475.2295">CSV File Submission</text><polygon fill="#181818" points="322,510.4375,332,514.4375,322,518.4375,326,514.4375" style="stroke:#181818;stroke-width:1.0;"/><line style="stroke:#181818;stroke-width:1.0;" x1="51" x2="328" y1="514.4375" y2="514.4375"/><text fill="#000000" font-family="sans-serif" font-size="13" lengthAdjust="spacing" textLength="264" x="58" y="509.5811">ImportStudentsFromCsv(csvFile, hasHeaders)</text><line style="stroke:#181818;stroke-width:1.0;" x1="344" x2="386" y1="561.1406" y2="561.1406"/><line style="stroke:#181818;stroke-width:1.0;" x1="386" x2="386" y1="561.1406" y2="574.1406"/><line style="stroke:#181818;stroke-width:1.0;" x1="345" x2="386" y1="574.1406" y2="574.1406"/><polygon fill="#181818" points="355,570.1406,345,574.1406,355,578.1406,351,574.1406" style="stroke:#181818;stroke-width:1.0;"/><text fill="#000000" font-family="sans-serif" font-size="13" lengthAdjust="spacing" textLength="107" x="351" y="539.9326">Validate file format</text><text fill="#000000" font-family="sans-serif" font-size="13" lengthAdjust="spacing" textLength="195" x="351" y="556.2842">(CSV file extension, content type)</text><line style="stroke:#181818;stroke-width:1.0;" x1="344" x2="386" y1="604.4922" y2="604.4922"/><line style="stroke:#181818;stroke-width:1.0;" x1="386" x2="386" y1="604.4922" y2="617.4922"/><line style="stroke:#181818;stroke-width:1.0;" x1="345" x2="386" y1="617.4922" y2="617.4922"/><polygon fill="#181818" points="355,613.4922,345,617.4922,355,621.4922,351,617.4922" style="stroke:#181818;stroke-width:1.0;"/><text fill="#000000" font-family="sans-serif" font-size="13" lengthAdjust="spacing" textLength="190" x="351" y="599.6357">Extract SchoolId from user token</text><polygon fill="#181818" points="708,643.8438,718,647.8438,708,651.8438,712,647.8438" style="stroke:#181818;stroke-width:1.0;"/><line style="stroke:#181818;stroke-width:1.0;" x1="344" x2="714" y1="647.8438" y2="647.8438"/><text fill="#000000" font-family="sans-serif" font-size="13" lengthAdjust="spacing" textLength="357" x="351" y="642.9873">ImportStudentsFromCsvAsync(schoolId, csvFile, hasHeaders)</text><line style="stroke:#181818;stroke-width:1.0;" x1="730" x2="772" y1="678.1953" y2="678.1953"/><line style="stroke:#181818;stroke-width:1.0;" x1="772" x2="772" y1="678.1953" y2="691.1953"/><line style="stroke:#181818;stroke-width:1.0;" x1="731" x2="772" y1="691.1953" y2="691.1953"/><polygon fill="#181818" points="741,687.1953,731,691.1953,741,695.1953,737,691.1953" style="stroke:#181818;stroke-width:1.0;"/><text fill="#000000" font-family="sans-serif" font-size="13" lengthAdjust="spacing" textLength="132" x="737" y="673.3389">Parse schoolId to Guid</text><polygon fill="#181818" points="1404,717.5469,1414,721.5469,1404,725.5469,1408,721.5469" style="stroke:#181818;stroke-width:1.0;"/><line style="stroke:#181818;stroke-width:1.0;" x1="730" x2="1410" y1="721.5469" y2="721.5469"/><text fill="#000000" font-family="sans-serif" font-size="13" lengthAdjust="spacing" textLength="128" x="737" y="716.6904">Check if school exists</text><polygon fill="#181818" points="741,747.8984,731,751.8984,741,755.8984,737,751.8984" style="stroke:#181818;stroke-width:1.0;"/><line style="stroke:#181818;stroke-width:1.0;stroke-dasharray:2.0,2.0;" x1="735" x2="1415" y1="751.8984" y2="751.8984"/><text fill="#000000" font-family="sans-serif" font-size="13" lengthAdjust="spacing" textLength="80" x="747" y="747.042">Return school</text><polygon fill="#181818" points="1191,778.25,1201,782.25,1191,786.25,1195,782.25" style="stroke:#181818;stroke-width:1.0;"/><line style="stroke:#181818;stroke-width:1.0;" x1="730" x2="1197" y1="782.25" y2="782.25"/><text fill="#000000" font-family="sans-serif" font-size="13" lengthAdjust="spacing" textLength="113" x="737" y="777.3936">Read CSV Records</text><line style="stroke:#181818;stroke-width:1.0;" x1="1213" x2="1255" y1="812.6016" y2="812.6016"/><line style="stroke:#181818;stroke-width:1.0;" x1="1255" x2="1255" y1="812.6016" y2="825.6016"/><line style="stroke:#181818;stroke-width:1.0;" x1="1214" x2="1255" y1="825.6016" y2="825.6016"/><polygon fill="#181818" points="1224,821.6016,1214,825.6016,1224,829.6016,1220,825.6016" style="stroke:#181818;stroke-width:1.0;"/><text fill="#000000" font-family="sans-serif" font-size="13" lengthAdjust="spacing" textLength="184" x="1220" y="807.7451">Register StudentCsvRecordMap</text><line style="stroke:#181818;stroke-width:1.0;" x1="1213" x2="1255" y1="855.9531" y2="855.9531"/><line style="stroke:#181818;stroke-width:1.0;" x1="1255" x2="1255" y1="855.9531" y2="868.9531"/><line style="stroke:#181818;stroke-width:1.0;" x1="1214" x2="1255" y1="868.9531" y2="868.9531"/><polygon fill="#181818" points="1224,864.9531,1214,868.9531,1224,872.9531,1220,868.9531" style="stroke:#181818;stroke-width:1.0;"/><text fill="#000000" font-family="sans-serif" font-size="13" lengthAdjust="spacing" textLength="85" x="1220" y="851.0967">Parse CSV file</text><polygon fill="#181818" points="741,895.3047,731,899.3047,741,903.3047,737,899.3047" style="stroke:#181818;stroke-width:1.0;"/><line style="stroke:#181818;stroke-width:1.0;stroke-dasharray:2.0,2.0;" x1="735" x2="1207" y1="899.3047" y2="899.3047"/><text fill="#000000" font-family="sans-serif" font-size="13" lengthAdjust="spacing" textLength="146" x="747" y="894.4482">List of StudentCsvRecord</text><line style="stroke:#181818;stroke-width:1.0;" x1="730" x2="772" y1="929.6563" y2="929.6563"/><line style="stroke:#181818;stroke-width:1.0;" x1="772" x2="772" y1="929.6563" y2="942.6563"/><line style="stroke:#181818;stroke-width:1.0;" x1="731" x2="772" y1="942.6563" y2="942.6563"/><polygon fill="#181818" points="741,938.6563,731,942.6563,741,946.6563,737,942.6563" style="stroke:#181818;stroke-width:1.0;"/><text fill="#000000" font-family="sans-serif" font-size="13" lengthAdjust="spacing" textLength="124" x="737" y="924.7998">Initialize ImportResult</text><path d="M646.5,957.6563 L719.5,957.6563 L719.5,966.0078 L709.5,976.0078 L646.5,976.0078 L646.5,957.6563 " fill="#EEEEEE" style="stroke:#000000;stroke-width:1.5;"/><rect fill="none" height="809.9219" style="stroke:#000000;stroke-width:1.5;" width="938" x="646.5" y="957.6563"/><text fill="#000000" font-family="sans-serif" font-size="13" font-weight="bold" lengthAdjust="spacing" textLength="28" x="661.5" y="972.1514">loop</text><text fill="#000000" font-family="sans-serif" font-size="11" font-weight="bold" lengthAdjust="spacing" textLength="234" x="734.5" y="971.0752">[For each record in StudentCsvRecord list]</text><line style="stroke:#181818;stroke-width:1.0;" x1="730" x2="772" y1="998.3594" y2="998.3594"/><line style="stroke:#181818;stroke-width:1.0;" x1="772" x2="772" y1="998.3594" y2="1011.3594"/><line style="stroke:#181818;stroke-width:1.0;" x1="731" x2="772" y1="1011.3594" y2="1011.3594"/><polygon fill="#181818" points="741,1007.3594,731,1011.3594,741,1015.3594,737,1011.3594" style="stroke:#181818;stroke-width:1.0;"/><text fill="#000000" font-family="sans-serif" font-size="13" lengthAdjust="spacing" textLength="282" x="737" y="993.5029">ValidateStudentCsvRecord(record, schoolTypeId)</text><path d="M656.5,1026.3594 L717.5,1026.3594 L717.5,1034.7109 L707.5,1044.7109 L656.5,1044.7109 L656.5,1026.3594 " fill="#EEEEEE" style="stroke:#000000;stroke-width:1.5;"/><rect fill="none" height="734.2188" style="stroke:#000000;stroke-width:1.5;" width="918" x="656.5" y="1026.3594"/><text fill="#000000" font-family="sans-serif" font-size="13" font-weight="bold" lengthAdjust="spacing" textLength="16" x="671.5" y="1040.8545">alt</text><text fill="#000000" font-family="sans-serif" font-size="11" font-weight="bold" lengthAdjust="spacing" textLength="88" x="732.5" y="1039.7783">[Record is valid]</text><polygon fill="#181818" points="1404,1063.0625,1414,1067.0625,1404,1071.0625,1408,1067.0625" style="stroke:#181818;stroke-width:1.0;"/><line style="stroke:#181818;stroke-width:1.0;" x1="730" x2="1410" y1="1067.0625" y2="1067.0625"/><text fill="#000000" font-family="sans-serif" font-size="13" lengthAdjust="spacing" textLength="172" x="737" y="1062.2061">Get SchoolLevel by LevelYear</text><polygon fill="#181818" points="741,1093.4141,731,1097.4141,741,1101.4141,737,1097.4141" style="stroke:#181818;stroke-width:1.0;"/><line style="stroke:#181818;stroke-width:1.0;stroke-dasharray:2.0,2.0;" x1="735" x2="1415" y1="1097.4141" y2="1097.4141"/><text fill="#000000" font-family="sans-serif" font-size="13" lengthAdjust="spacing" textLength="111" x="747" y="1092.5576">Return SchoolLevel</text><line style="stroke:#181818;stroke-width:1.0;" x1="730" x2="772" y1="1127.7656" y2="1127.7656"/><line style="stroke:#181818;stroke-width:1.0;" x1="772" x2="772" y1="1127.7656" y2="1140.7656"/><line style="stroke:#181818;stroke-width:1.0;" x1="731" x2="772" y1="1140.7656" y2="1140.7656"/><polygon fill="#181818" points="741,1136.7656,731,1140.7656,741,1144.7656,737,1140.7656" style="stroke:#181818;stroke-width:1.0;"/><text fill="#000000" font-family="sans-serif" font-size="13" lengthAdjust="spacing" textLength="132" x="737" y="1122.9092">Map to AddStudentDto</text><line style="stroke:#181818;stroke-width:1.0;" x1="730" x2="777" y1="1166.1172" y2="1166.1172"/><line style="stroke:#181818;stroke-width:1.0;" x1="777" x2="777" y1="1166.1172" y2="1179.1172"/><line style="stroke:#181818;stroke-width:1.0;" x1="736" x2="777" y1="1179.1172" y2="1179.1172"/><polygon fill="#181818" points="746,1175.1172,736,1179.1172,746,1183.1172,742,1179.1172" style="stroke:#181818;stroke-width:1.0;"/><text fill="#000000" font-family="sans-serif" font-size="13" lengthAdjust="spacing" textLength="232" x="742" y="1161.2607">AddStudentAsync(schoolId, studentDto)</text><line style="stroke:#181818;stroke-width:1.0;" x1="735" x2="777" y1="1214.4688" y2="1214.4688"/><line style="stroke:#181818;stroke-width:1.0;" x1="777" x2="777" y1="1214.4688" y2="1227.4688"/><line style="stroke:#181818;stroke-width:1.0;" x1="736" x2="777" y1="1227.4688" y2="1227.4688"/><polygon fill="#181818" points="746,1223.4688,736,1227.4688,746,1231.4688,742,1227.4688" style="stroke:#181818;stroke-width:1.0;"/><text fill="#000000" font-family="sans-serif" font-size="13" lengthAdjust="spacing" textLength="123" x="742" y="1209.6123">Create Student entity</text><polygon fill="#181818" points="1404,1253.8203,1414,1257.8203,1404,1261.8203,1408,1257.8203" style="stroke:#181818;stroke-width:1.0;"/><line style="stroke:#181818;stroke-width:1.0;" x1="735" x2="1410" y1="1257.8203" y2="1257.8203"/><text fill="#000000" font-family="sans-serif" font-size="13" lengthAdjust="spacing" textLength="77" x="742" y="1252.9639">Save Student</text><polygon fill="#181818" points="1014,1284.1719,1024,1288.1719,1014,1292.1719,1018,1288.1719" style="stroke:#181818;stroke-width:1.0;"/><line style="stroke:#181818;stroke-width:1.0;" x1="735" x2="1020" y1="1288.1719" y2="1288.1719"/><text fill="#000000" font-family="sans-serif" font-size="13" lengthAdjust="spacing" textLength="242" x="742" y="1283.3154">RegisterParent(NationalId, parentInfosDto)</text><polygon fill="#181818" points="1404,1314.5234,1414,1318.5234,1404,1322.5234,1408,1318.5234" style="stroke:#181818;stroke-width:1.0;"/><line style="stroke:#181818;stroke-width:1.0;" x1="1036" x2="1410" y1="1318.5234" y2="1318.5234"/><text fill="#000000" font-family="sans-serif" font-size="13" lengthAdjust="spacing" textLength="120" x="1043" y="1313.667">Find or create parent</text><path d="M966,1333.5234 L1027,1333.5234 L1027,1341.875 L1017,1351.875 L966,1351.875 L966,1333.5234 " fill="#EEEEEE" style="stroke:#000000;stroke-width:1.5;"/><rect fill="none" height="183.1094" style="stroke:#000000;stroke-width:1.5;" width="598.5" x="966" y="1333.5234"/><text fill="#000000" font-family="sans-serif" font-size="13" font-weight="bold" lengthAdjust="spacing" textLength="16" x="981" y="1348.0186">alt</text><text fill="#000000" font-family="sans-serif" font-size="11" font-weight="bold" lengthAdjust="spacing" textLength="71" x="1042" y="1346.9424">[New parent]</text><polygon fill="#181818" points="1404,1370.2266,1414,1374.2266,1404,1378.2266,1408,1374.2266" style="stroke:#181818;stroke-width:1.0;"/><line style="stroke:#181818;stroke-width:1.0;" x1="1036" x2="1410" y1="1374.2266" y2="1374.2266"/><text fill="#000000" font-family="sans-serif" font-size="13" lengthAdjust="spacing" textLength="119" x="1043" y="1369.3701">Create new AppUser</text><polygon fill="#181818" points="1404,1400.5781,1414,1404.5781,1404,1408.5781,1408,1404.5781" style="stroke:#181818;stroke-width:1.0;"/><line style="stroke:#181818;stroke-width:1.0;" x1="1036" x2="1410" y1="1404.5781" y2="1404.5781"/><text fill="#000000" font-family="sans-serif" font-size="13" lengthAdjust="spacing" textLength="107" x="1043" y="1399.7217">Create new Parent</text><line style="stroke:#181818;stroke-width:1.0;" x1="1036" x2="1078" y1="1434.9297" y2="1434.9297"/><line style="stroke:#181818;stroke-width:1.0;" x1="1078" x2="1078" y1="1434.9297" y2="1447.9297"/><line style="stroke:#181818;stroke-width:1.0;" x1="1037" x2="1078" y1="1447.9297" y2="1447.9297"/><polygon fill="#181818" points="1047,1443.9297,1037,1447.9297,1047,1451.9297,1043,1447.9297" style="stroke:#181818;stroke-width:1.0;"/><text fill="#000000" font-family="sans-serif" font-size="13" lengthAdjust="spacing" textLength="153" x="1043" y="1430.0732">Generate verification token</text><polygon fill="#181818" points="1490,1474.2813,1500,1478.2813,1490,1482.2813,1494,1478.2813" style="stroke:#181818;stroke-width:1.0;"/><line style="stroke:#181818;stroke-width:1.0;" x1="1036" x2="1496" y1="1478.2813" y2="1478.2813"/><text fill="#000000" font-family="sans-serif" font-size="13" lengthAdjust="spacing" textLength="180" x="1043" y="1473.4248">SendConfirmationEmailAsync()</text><polygon fill="#181818" points="1047,1504.6328,1037,1508.6328,1047,1512.6328,1043,1508.6328" style="stroke:#181818;stroke-width:1.0;"/><line style="stroke:#181818;stroke-width:1.0;stroke-dasharray:2.0,2.0;" x1="1041" x2="1506" y1="1508.6328" y2="1508.6328"/><text fill="#000000" font-family="sans-serif" font-size="13" lengthAdjust="spacing" textLength="62" x="1053" y="1503.7764">Email sent</text><polygon fill="#181818" points="746,1541.9844,736,1545.9844,746,1549.9844,742,1545.9844" style="stroke:#181818;stroke-width:1.0;"/><line style="stroke:#181818;stroke-width:1.0;stroke-dasharray:2.0,2.0;" x1="740" x2="1030" y1="1545.9844" y2="1545.9844"/><text fill="#000000" font-family="sans-serif" font-size="13" lengthAdjust="spacing" textLength="90" x="752" y="1541.1279">Return ParentId</text><polygon fill="#181818" points="1404,1572.3359,1414,1576.3359,1404,1580.3359,1408,1576.3359" style="stroke:#181818;stroke-width:1.0;"/><line style="stroke:#181818;stroke-width:1.0;" x1="735" x2="1410" y1="1576.3359" y2="1576.3359"/><text fill="#000000" font-family="sans-serif" font-size="13" lengthAdjust="spacing" textLength="130" x="742" y="1571.4795">Link Student to Parent</text><polygon fill="#181818" points="746,1602.6875,736,1606.6875,746,1610.6875,742,1606.6875" style="stroke:#181818;stroke-width:1.0;"/><line style="stroke:#181818;stroke-width:1.0;stroke-dasharray:2.0,2.0;" x1="740" x2="1415" y1="1606.6875" y2="1606.6875"/><text fill="#000000" font-family="sans-serif" font-size="13" lengthAdjust="spacing" textLength="96" x="752" y="1601.8311">Save Successful</text><line style="stroke:#181818;stroke-width:1.0;" x1="735" x2="777" y1="1642.0391" y2="1642.0391"/><line style="stroke:#181818;stroke-width:1.0;" x1="777" x2="777" y1="1642.0391" y2="1655.0391"/><line style="stroke:#181818;stroke-width:1.0;" x1="730" x2="777" y1="1655.0391" y2="1655.0391"/><polygon fill="#181818" points="740,1651.0391,730,1655.0391,740,1659.0391,736,1655.0391" style="stroke:#181818;stroke-width:1.0;"/><text fill="#000000" font-family="sans-serif" font-size="13" lengthAdjust="spacing" textLength="168" x="742" y="1637.1826">Increment SuccessfulImports</text><line style="stroke:#000000;stroke-width:1.0;stroke-dasharray:2.0,2.0;" x1="656.5" x2="1574.5" y1="1659.0391" y2="1659.0391"/><text fill="#000000" font-family="sans-serif" font-size="11" font-weight="bold" lengthAdjust="spacing" textLength="98" x="661.5" y="1670.458">[Record is invalid]</text><line style="stroke:#181818;stroke-width:1.0;" x1="730" x2="772" y1="1696.2266" y2="1696.2266"/><line style="stroke:#181818;stroke-width:1.0;" x1="772" x2="772" y1="1696.2266" y2="1709.2266"/><line style="stroke:#181818;stroke-width:1.0;" x1="731" x2="772" y1="1709.2266" y2="1709.2266"/><polygon fill="#181818" points="741,1705.2266,731,1709.2266,741,1713.2266,737,1709.2266" style="stroke:#181818;stroke-width:1.0;"/><text fill="#000000" font-family="sans-serif" font-size="13" lengthAdjust="spacing" textLength="145" x="737" y="1691.3701">Add error to ImportResult</text><line style="stroke:#181818;stroke-width:1.0;" x1="730" x2="772" y1="1739.5781" y2="1739.5781"/><line style="stroke:#181818;stroke-width:1.0;" x1="772" x2="772" y1="1739.5781" y2="1752.5781"/><line style="stroke:#181818;stroke-width:1.0;" x1="731" x2="772" y1="1752.5781" y2="1752.5781"/><polygon fill="#181818" points="741,1748.5781,731,1752.5781,741,1756.5781,737,1752.5781" style="stroke:#181818;stroke-width:1.0;"/><text fill="#000000" font-family="sans-serif" font-size="13" lengthAdjust="spacing" textLength="139" x="737" y="1734.7217">Increment FailedImports</text><polygon fill="#181818" points="355,1792.9297,345,1796.9297,355,1800.9297,351,1796.9297" style="stroke:#181818;stroke-width:1.0;"/><line style="stroke:#181818;stroke-width:1.0;stroke-dasharray:2.0,2.0;" x1="349" x2="724" y1="1796.9297" y2="1796.9297"/><text fill="#000000" font-family="sans-serif" font-size="13" lengthAdjust="spacing" textLength="180" x="361" y="1792.0732">Return StudentImportResultDto</text><polygon fill="#181818" points="62,1839.6328,52,1843.6328,62,1847.6328,58,1843.6328" style="stroke:#181818;stroke-width:1.0;"/><line style="stroke:#181818;stroke-width:1.0;stroke-dasharray:2.0,2.0;" x1="56" x2="338" y1="1843.6328" y2="1843.6328"/><text fill="#000000" font-family="sans-serif" font-size="13" lengthAdjust="spacing" textLength="114" x="68" y="1822.4248">Return import result</text><text fill="#000000" font-family="sans-serif" font-size="13" lengthAdjust="spacing" textLength="254" x="68" y="1838.7764">(Successful/Failed counts, Error messages)</text><!--SRC=[bLPRRziw37xtho2wbmHmjlS2FK3RD5s0dg58Ti60lQWstGYL9KEIqtM_VjJ5rzevEGLIo1BvaVnuaLXcbOQBVNPGIi1rNd9v0So4LL8nRNd6AoOjoTWwHsdDhP9MAo5GUydkSr9yZ_h8CpHUDduC1H-P7iiDjeRIj-Ru6KNL66- -afnPziGCmiKwhhp0-cQeVbSoBYAm5_0RIMAv5GWRJl- -LKAn71wr8dSChE0hbfLW5c6jNgKxIvsWI8797FRrKycDuKecoTNLUrcukaeIpoQi_kcHTGdtQBTbfRHjT1RBX6MM7vrwZzLkwH6QY2_XLgCNtN-77vfR4ktKMrvcjRqAV4QMqz5ElVwIYvWo4jfXfdHENeYwb6QPj7gm6aNXh3l6anp_mpefUXukOOUsrX9CCBVYdeMLZJHypCnnWDPHCM3OvO3BPqTmosyqu8wWmODNRW-DCN1rGg5-OIMQ56wufhEjB5JgxP3HD5PVt4MRVLnwmovINo1TokUJ6pBRjCn6gv98ML1a3Y650pE1UNDMpdl0tvdWkPCkd2k5qYMp58zppk_WRulI-PP2Hcek4FjMuV84vDrlgya924DWcqD1xa9jIDAg5vGZrTWzCp5UcpUPBKo48YTEXjoqU18N0tpA0_Lp0qM-m7tDyxxe-eOAy83P2_0Y2X81t5YJh6zynRLWJSrveO6zNa_io46Vvr3_PhAXkbOOwJwJOTeUTz6_h9fL2Y4soHkrMUlx0m63AjuXJ_VS99TRoIsdqlc3CMqxDBMmIIAKgc13Tm117K27lgTwVZSB13cH0FrDmJTLETPQ1C0qylwLAd6RBpqC4pRI3Dp0qG7u_P49bsAQbB4u7_280fxUm2z-8jEjpap2Utgjw9ITLe_IvKhjEizZC6khpjFiLCPDO5gaPOimxW7ui6RwPSz4ILV9MVRY_8ysWNxSlirnk6V7LlGa_E3kxSewRDFSj3HRc8-gybjkJ9hfo8RNU7Cys6tSst2wIwaAin1JWEuGgLQ-uEjuUnOjCYD9vRgglj4a-rywZsUO6T5qZnArqp-YvWNFF4rnV9x4yUyFIW_AdCPimTqy9rM_7SfeEG1eoGqFb_wHt_5DC78k79XnJBtfCGGZN-QoDT5XGMBRgVHmfojWhaOVk7nfovbwS9I7SOU7agupzqmhwZFRUokfn4fdeDCC4z5C1J3Nd2XeRdVZYylP0TOV3u1QAtUh3eVmUVvkA4MOztrrUNA_f9-U_itUpC10QT-c6shlmqnEFzZ2Guqk2OVWteijWv-2S_JagEafaCATZvEUM8Oz8rtuqy-vlm00]--></g></svg>