<?xml version="1.0" encoding="us-ascii" standalone="no"?><svg xmlns="http://www.w3.org/2000/svg" xmlns:xlink="http://www.w3.org/1999/xlink" contentStyleType="text/css" height="2297px" preserveAspectRatio="none" style="width:1485px;height:2297px;background:#FFFFFF;" version="1.1" viewBox="0 0 1485 2297" width="1485px" zoomAndPan="magnify"><defs/><g><text fill="#000000" font-family="sans-serif" font-size="14" font-weight="bold" lengthAdjust="spacing" textLength="352" x="562.5" y="29.5332">Schedule Management Process (Emploi de temps)</text><rect fill="#FFFFFF" height="184.4609" style="stroke:#181818;stroke-width:1.0;" width="10" x="334" y="197.9219"/><rect fill="#FFFFFF" height="137.7578" style="stroke:#181818;stroke-width:1.0;" width="10" x="334" y="457.0859"/><rect fill="#FFFFFF" height="168.1094" style="stroke:#181818;stroke-width:1.0;" width="10" x="334" y="669.5469"/><rect fill="#FFFFFF" height="894.1406" style="stroke:#181818;stroke-width:1.0;" width="10" x="334" y="912.3594"/><rect fill="#FFFFFF" height="150.7578" style="stroke:#181818;stroke-width:1.0;" width="10" x="334" y="1881.2031"/><rect fill="#FFFFFF" height="91.0547" style="stroke:#181818;stroke-width:1.0;" width="10" x="334" y="2106.6641"/><rect fill="#FFFFFF" height="651.3281" style="stroke:#181818;stroke-width:1.0;" width="10" x="627" y="1064.1172"/><rect fill="#FFFFFF" height="117.0547" style="stroke:#181818;stroke-width:1.0;" width="10" x="860" y="1258.2266"/><rect fill="#FFFFFF" height="279.4609" style="stroke:#181818;stroke-width:1.0;" width="10" x="1136" y="1405.6328"/><rect fill="none" height="191.7578" style="stroke:#000000;stroke-width:1.5;" width="355" x="1032" y="1463.9844"/><line style="stroke:#181818;stroke-width:0.5;stroke-dasharray:5.0,5.0;" x1="51" x2="51" y1="121.2188" y2="2215.7188"/><line style="stroke:#181818;stroke-width:0.5;stroke-dasharray:5.0,5.0;" x1="338.5" x2="338.5" y1="121.2188" y2="2215.7188"/><line style="stroke:#181818;stroke-width:0.5;stroke-dasharray:5.0,5.0;" x1="631.5" x2="631.5" y1="121.2188" y2="2215.7188"/><line style="stroke:#181818;stroke-width:0.5;stroke-dasharray:5.0,5.0;" x1="864.5" x2="864.5" y1="121.2188" y2="2215.7188"/><line style="stroke:#181818;stroke-width:0.5;stroke-dasharray:5.0,5.0;" x1="1141" x2="1141" y1="121.2188" y2="2215.7188"/><line style="stroke:#181818;stroke-width:0.5;stroke-dasharray:5.0,5.0;" x1="1387" x2="1387" y1="121.2188" y2="2215.7188"/><text fill="#000000" font-family="sans-serif" font-size="14" lengthAdjust="spacing" textLength="86" x="5" y="118.1426">School Admin</text><ellipse cx="51" cy="52.1094" fill="#E2E2F0" rx="8" ry="8" style="stroke:#181818;stroke-width:0.5;"/><path d="M51,60.1094 L51,87.1094 M38,68.1094 L64,68.1094 M51,87.1094 L38,102.1094 M51,87.1094 L64,102.1094 " fill="none" style="stroke:#181818;stroke-width:0.5;"/><text fill="#000000" font-family="sans-serif" font-size="14" lengthAdjust="spacing" textLength="86" x="5" y="2229.252">School Admin</text><ellipse cx="51" cy="2240.8281" fill="#E2E2F0" rx="8" ry="8" style="stroke:#181818;stroke-width:0.5;"/><path d="M51,2248.8281 L51,2275.8281 M38,2256.8281 L64,2256.8281 M51,2275.8281 L38,2290.8281 M51,2275.8281 L64,2290.8281 " fill="none" style="stroke:#181818;stroke-width:0.5;"/><rect fill="#E2E2F0" height="31.6094" rx="2.5" ry="2.5" style="stroke:#181818;stroke-width:0.5;" width="135" x="271.5" y="88.6094"/><text fill="#000000" font-family="sans-serif" font-size="14" lengthAdjust="spacing" textLength="121" x="278.5" y="110.1426">ScheduleController</text><rect fill="#E2E2F0" height="31.6094" rx="2.5" ry="2.5" style="stroke:#181818;stroke-width:0.5;" width="135" x="271.5" y="2214.7188"/><text fill="#000000" font-family="sans-serif" font-size="14" lengthAdjust="spacing" textLength="121" x="278.5" y="2236.252">ScheduleController</text><rect fill="#E2E2F0" height="31.6094" rx="2.5" ry="2.5" style="stroke:#181818;stroke-width:0.5;" width="141" x="561.5" y="88.6094"/><text fill="#000000" font-family="sans-serif" font-size="14" lengthAdjust="spacing" textLength="127" x="568.5" y="110.1426">AdvancedScheduler</text><rect fill="#E2E2F0" height="31.6094" rx="2.5" ry="2.5" style="stroke:#181818;stroke-width:0.5;" width="141" x="561.5" y="2214.7188"/><text fill="#000000" font-family="sans-serif" font-size="14" lengthAdjust="spacing" textLength="127" x="568.5" y="2236.252">AdvancedScheduler</text><rect fill="#E2E2F0" height="31.6094" rx="2.5" ry="2.5" style="stroke:#181818;stroke-width:0.5;" width="125" x="802.5" y="88.6094"/><text fill="#000000" font-family="sans-serif" font-size="14" lengthAdjust="spacing" textLength="111" x="809.5" y="110.1426">GreedyScheduler</text><rect fill="#E2E2F0" height="31.6094" rx="2.5" ry="2.5" style="stroke:#181818;stroke-width:0.5;" width="125" x="802.5" y="2214.7188"/><text fill="#000000" font-family="sans-serif" font-size="14" lengthAdjust="spacing" textLength="111" x="809.5" y="2236.252">GreedyScheduler</text><rect fill="#E2E2F0" height="31.6094" rx="2.5" ry="2.5" style="stroke:#181818;stroke-width:0.5;" width="198" x="1042" y="88.6094"/><text fill="#000000" font-family="sans-serif" font-size="14" lengthAdjust="spacing" textLength="184" x="1049" y="110.1426">SimulatedAnnealingOptimizer</text><rect fill="#E2E2F0" height="31.6094" rx="2.5" ry="2.5" style="stroke:#181818;stroke-width:0.5;" width="198" x="1042" y="2214.7188"/><text fill="#000000" font-family="sans-serif" font-size="14" lengthAdjust="spacing" textLength="184" x="1049" y="2236.252">SimulatedAnnealingOptimizer</text><text fill="#000000" font-family="sans-serif" font-size="14" lengthAdjust="spacing" textLength="166" x="1301" y="118.1426">Database (AppDbContext)</text><path d="M1369,67.6094 C1369,57.6094 1387,57.6094 1387,57.6094 C1387,57.6094 1405,57.6094 1405,67.6094 L1405,93.6094 C1405,103.6094 1387,103.6094 1387,103.6094 C1387,103.6094 1369,103.6094 1369,93.6094 L1369,67.6094 " fill="#E2E2F0" style="stroke:#181818;stroke-width:1.5;"/><path d="M1369,67.6094 C1369,77.6094 1387,77.6094 1387,77.6094 C1387,77.6094 1405,77.6094 1405,67.6094 " fill="none" style="stroke:#181818;stroke-width:1.5;"/><text fill="#000000" font-family="sans-serif" font-size="14" lengthAdjust="spacing" textLength="166" x="1301" y="2229.252">Database (AppDbContext)</text><path d="M1369,2242.3281 C1369,2232.3281 1387,2232.3281 1387,2232.3281 C1387,2232.3281 1405,2232.3281 1405,2242.3281 L1405,2268.3281 C1405,2278.3281 1387,2278.3281 1387,2278.3281 C1387,2278.3281 1369,2278.3281 1369,2268.3281 L1369,2242.3281 " fill="#E2E2F0" style="stroke:#181818;stroke-width:1.5;"/><path d="M1369,2242.3281 C1369,2252.3281 1387,2252.3281 1387,2252.3281 C1387,2252.3281 1405,2252.3281 1405,2242.3281 " fill="none" style="stroke:#181818;stroke-width:1.5;"/><rect fill="#FFFFFF" height="184.4609" style="stroke:#181818;stroke-width:1.0;" width="10" x="334" y="197.9219"/><rect fill="#FFFFFF" height="137.7578" style="stroke:#181818;stroke-width:1.0;" width="10" x="334" y="457.0859"/><rect fill="#FFFFFF" height="168.1094" style="stroke:#181818;stroke-width:1.0;" width="10" x="334" y="669.5469"/><rect fill="#FFFFFF" height="894.1406" style="stroke:#181818;stroke-width:1.0;" width="10" x="334" y="912.3594"/><rect fill="#FFFFFF" height="150.7578" style="stroke:#181818;stroke-width:1.0;" width="10" x="334" y="1881.2031"/><rect fill="#FFFFFF" height="91.0547" style="stroke:#181818;stroke-width:1.0;" width="10" x="334" y="2106.6641"/><rect fill="#FFFFFF" height="651.3281" style="stroke:#181818;stroke-width:1.0;" width="10" x="627" y="1064.1172"/><rect fill="#FFFFFF" height="117.0547" style="stroke:#181818;stroke-width:1.0;" width="10" x="860" y="1258.2266"/><rect fill="#FFFFFF" height="279.4609" style="stroke:#181818;stroke-width:1.0;" width="10" x="1136" y="1405.6328"/><rect fill="#EEEEEE" height="3" style="stroke:#EEEEEE;stroke-width:1.0;" width="1478" x="0" y="152.3945"/><line style="stroke:#000000;stroke-width:1.0;" x1="0" x2="1478" y1="152.3945" y2="152.3945"/><line style="stroke:#000000;stroke-width:1.0;" x1="0" x2="1478" y1="155.3945" y2="155.3945"/><rect fill="#EEEEEE" height="24.3516" style="stroke:#000000;stroke-width:2.0;" width="168" x="655" y="141.2188"/><text fill="#000000" font-family="sans-serif" font-size="13" font-weight="bold" lengthAdjust="spacing" textLength="150" x="661" y="158.7139">Schedule Configuration</text><polygon fill="#181818" points="322,193.9219,332,197.9219,322,201.9219,326,197.9219" style="stroke:#181818;stroke-width:1.0;"/><line style="stroke:#181818;stroke-width:1.0;" x1="51" x2="328" y1="197.9219" y2="197.9219"/><text fill="#000000" font-family="sans-serif" font-size="13" lengthAdjust="spacing" textLength="246" x="58" y="193.0654">ConfigureSchoolSchedule(schoolId, config)</text><polygon fill="#181818" points="1375,224.2734,1385,228.2734,1375,232.2734,1379,228.2734" style="stroke:#181818;stroke-width:1.0;"/><line style="stroke:#181818;stroke-width:1.0;" x1="344" x2="1381" y1="228.2734" y2="228.2734"/><text fill="#000000" font-family="sans-serif" font-size="13" lengthAdjust="spacing" textLength="65" x="351" y="223.417">Get School</text><polygon fill="#181818" points="355,254.625,345,258.625,355,262.625,351,258.625" style="stroke:#181818;stroke-width:1.0;"/><line style="stroke:#181818;stroke-width:1.0;stroke-dasharray:2.0,2.0;" x1="349" x2="1386" y1="258.625" y2="258.625"/><text fill="#000000" font-family="sans-serif" font-size="13" lengthAdjust="spacing" textLength="82" x="361" y="253.7686">Return School</text><polygon fill="#181818" points="1375,317.6797,1385,321.6797,1375,325.6797,1379,321.6797" style="stroke:#181818;stroke-width:1.0;"/><line style="stroke:#181818;stroke-width:1.0;" x1="344" x2="1381" y1="321.6797" y2="321.6797"/><text fill="#000000" font-family="sans-serif" font-size="13" lengthAdjust="spacing" textLength="175" x="351" y="284.1201">Update SchoolScheduleConfig</text><text fill="#000000" font-family="sans-serif" font-size="13" lengthAdjust="spacing" textLength="250" x="351" y="300.4717">(MorningStart, MorningEnd, AfternoonStart,</text><text fill="#000000" font-family="sans-serif" font-size="13" lengthAdjust="spacing" textLength="205" x="351" y="316.8232">AfternoonEnd, DaysOff, ShortDays)</text><polygon fill="#181818" points="355,348.0313,345,352.0313,355,356.0313,351,352.0313" style="stroke:#181818;stroke-width:1.0;"/><line style="stroke:#181818;stroke-width:1.0;stroke-dasharray:2.0,2.0;" x1="349" x2="1386" y1="352.0313" y2="352.0313"/><text fill="#000000" font-family="sans-serif" font-size="13" lengthAdjust="spacing" textLength="96" x="361" y="347.1748">Save Successful</text><polygon fill="#181818" points="62,378.3828,52,382.3828,62,386.3828,58,382.3828" style="stroke:#181818;stroke-width:1.0;"/><line style="stroke:#181818;stroke-width:1.0;stroke-dasharray:2.0,2.0;" x1="56" x2="338" y1="382.3828" y2="382.3828"/><text fill="#000000" font-family="sans-serif" font-size="13" lengthAdjust="spacing" textLength="136" x="68" y="377.5264">Return Schedule Config</text><rect fill="#EEEEEE" height="3" style="stroke:#EEEEEE;stroke-width:1.0;" width="1478" x="0" y="411.5586"/><line style="stroke:#000000;stroke-width:1.0;" x1="0" x2="1478" y1="411.5586" y2="411.5586"/><line style="stroke:#000000;stroke-width:1.0;" x1="0" x2="1478" y1="414.5586" y2="414.5586"/><rect fill="#EEEEEE" height="24.3516" style="stroke:#000000;stroke-width:2.0;" width="131" x="673.5" y="400.3828"/><text fill="#000000" font-family="sans-serif" font-size="13" font-weight="bold" lengthAdjust="spacing" textLength="113" x="679.5" y="417.8779">Set Subject Hours</text><polygon fill="#181818" points="322,453.0859,332,457.0859,322,461.0859,326,457.0859" style="stroke:#181818;stroke-width:1.0;"/><line style="stroke:#181818;stroke-width:1.0;" x1="51" x2="328" y1="457.0859" y2="457.0859"/><text fill="#000000" font-family="sans-serif" font-size="13" lengthAdjust="spacing" textLength="212" x="58" y="452.2295">SetSubjectHours(schoolId, requests)</text><polygon fill="#181818" points="1375,483.4375,1385,487.4375,1375,491.4375,1379,487.4375" style="stroke:#181818;stroke-width:1.0;"/><line style="stroke:#181818;stroke-width:1.0;" x1="344" x2="1381" y1="487.4375" y2="487.4375"/><text fill="#000000" font-family="sans-serif" font-size="13" lengthAdjust="spacing" textLength="208" x="351" y="482.5811">Remove Existing LevelSubjectHours</text><polygon fill="#181818" points="1375,530.1406,1385,534.1406,1375,538.1406,1379,534.1406" style="stroke:#181818;stroke-width:1.0;"/><line style="stroke:#181818;stroke-width:1.0;" x1="344" x2="1381" y1="534.1406" y2="534.1406"/><text fill="#000000" font-family="sans-serif" font-size="13" lengthAdjust="spacing" textLength="163" x="351" y="512.9326">Add New LevelSubjectHours</text><text fill="#000000" font-family="sans-serif" font-size="13" lengthAdjust="spacing" textLength="180" x="351" y="529.2842">(Level, Subject, Hours, Priority)</text><polygon fill="#181818" points="355,560.4922,345,564.4922,355,568.4922,351,564.4922" style="stroke:#181818;stroke-width:1.0;"/><line style="stroke:#181818;stroke-width:1.0;stroke-dasharray:2.0,2.0;" x1="349" x2="1386" y1="564.4922" y2="564.4922"/><text fill="#000000" font-family="sans-serif" font-size="13" lengthAdjust="spacing" textLength="96" x="361" y="559.6357">Save Successful</text><polygon fill="#181818" points="62,590.8438,52,594.8438,62,598.8438,58,594.8438" style="stroke:#181818;stroke-width:1.0;"/><line style="stroke:#181818;stroke-width:1.0;stroke-dasharray:2.0,2.0;" x1="56" x2="338" y1="594.8438" y2="594.8438"/><text fill="#000000" font-family="sans-serif" font-size="13" lengthAdjust="spacing" textLength="155" x="68" y="589.9873">Return Success Response</text><rect fill="#EEEEEE" height="3" style="stroke:#EEEEEE;stroke-width:1.0;" width="1478" x="0" y="624.0195"/><line style="stroke:#000000;stroke-width:1.0;" x1="0" x2="1478" y1="624.0195" y2="624.0195"/><line style="stroke:#000000;stroke-width:1.0;" x1="0" x2="1478" y1="627.0195" y2="627.0195"/><rect fill="#EEEEEE" height="24.3516" style="stroke:#000000;stroke-width:2.0;" width="170" x="654" y="612.8438"/><text fill="#000000" font-family="sans-serif" font-size="13" font-weight="bold" lengthAdjust="spacing" textLength="152" x="660" y="630.3389">Set Teacher Availability</text><polygon fill="#181818" points="322,665.5469,332,669.5469,322,673.5469,326,669.5469" style="stroke:#181818;stroke-width:1.0;"/><line style="stroke:#181818;stroke-width:1.0;" x1="51" x2="328" y1="669.5469" y2="669.5469"/><text fill="#000000" font-family="sans-serif" font-size="13" lengthAdjust="spacing" textLength="255" x="58" y="664.6904">SetTeacherAvailability(teacherId, availability)</text><polygon fill="#181818" points="1375,695.8984,1385,699.8984,1375,703.8984,1379,699.8984" style="stroke:#181818;stroke-width:1.0;"/><line style="stroke:#181818;stroke-width:1.0;" x1="344" x2="1381" y1="699.8984" y2="699.8984"/><text fill="#000000" font-family="sans-serif" font-size="13" lengthAdjust="spacing" textLength="173" x="351" y="695.042">Get Teacher with Availabilities</text><polygon fill="#181818" points="355,726.25,345,730.25,355,734.25,351,730.25" style="stroke:#181818;stroke-width:1.0;"/><line style="stroke:#181818;stroke-width:1.0;stroke-dasharray:2.0,2.0;" x1="349" x2="1386" y1="730.25" y2="730.25"/><text fill="#000000" font-family="sans-serif" font-size="13" lengthAdjust="spacing" textLength="88" x="361" y="725.3936">Return Teacher</text><polygon fill="#181818" points="1375,772.9531,1385,776.9531,1375,780.9531,1379,776.9531" style="stroke:#181818;stroke-width:1.0;"/><line style="stroke:#181818;stroke-width:1.0;" x1="344" x2="1381" y1="776.9531" y2="776.9531"/><text fill="#000000" font-family="sans-serif" font-size="13" lengthAdjust="spacing" textLength="152" x="351" y="755.7451">Update TeacherAvailability</text><text fill="#000000" font-family="sans-serif" font-size="13" lengthAdjust="spacing" textLength="154" x="351" y="772.0967">(Day, StartTime, EndTime)</text><polygon fill="#181818" points="355,803.3047,345,807.3047,355,811.3047,351,807.3047" style="stroke:#181818;stroke-width:1.0;"/><line style="stroke:#181818;stroke-width:1.0;stroke-dasharray:2.0,2.0;" x1="349" x2="1386" y1="807.3047" y2="807.3047"/><text fill="#000000" font-family="sans-serif" font-size="13" lengthAdjust="spacing" textLength="96" x="361" y="802.4482">Save Successful</text><polygon fill="#181818" points="62,833.6563,52,837.6563,62,841.6563,58,837.6563" style="stroke:#181818;stroke-width:1.0;"/><line style="stroke:#181818;stroke-width:1.0;stroke-dasharray:2.0,2.0;" x1="56" x2="338" y1="837.6563" y2="837.6563"/><text fill="#000000" font-family="sans-serif" font-size="13" lengthAdjust="spacing" textLength="155" x="68" y="832.7998">Return Success Response</text><rect fill="#EEEEEE" height="3" style="stroke:#EEEEEE;stroke-width:1.0;" width="1478" x="0" y="866.832"/><line style="stroke:#000000;stroke-width:1.0;" x1="0" x2="1478" y1="866.832" y2="866.832"/><line style="stroke:#000000;stroke-width:1.0;" x1="0" x2="1478" y1="869.832" y2="869.832"/><rect fill="#EEEEEE" height="24.3516" style="stroke:#000000;stroke-width:2.0;" width="141" x="668.5" y="855.6563"/><text fill="#000000" font-family="sans-serif" font-size="13" font-weight="bold" lengthAdjust="spacing" textLength="123" x="674.5" y="873.1514">Generate Schedule</text><polygon fill="#181818" points="322,908.3594,332,912.3594,322,916.3594,326,912.3594" style="stroke:#181818;stroke-width:1.0;"/><line style="stroke:#181818;stroke-width:1.0;" x1="51" x2="328" y1="912.3594" y2="912.3594"/><text fill="#000000" font-family="sans-serif" font-size="13" lengthAdjust="spacing" textLength="264" x="58" y="907.5029">GenerateSchedule(schoolId, academicYearId)</text><polygon fill="#181818" points="1375,938.7109,1385,942.7109,1375,946.7109,1379,942.7109" style="stroke:#181818;stroke-width:1.0;"/><line style="stroke:#181818;stroke-width:1.0;" x1="344" x2="1381" y1="942.7109" y2="942.7109"/><text fill="#000000" font-family="sans-serif" font-size="13" lengthAdjust="spacing" textLength="203" x="351" y="937.8545">Validate school and academic year</text><polygon fill="#181818" points="355,969.0625,345,973.0625,355,977.0625,351,973.0625" style="stroke:#181818;stroke-width:1.0;"/><line style="stroke:#181818;stroke-width:1.0;stroke-dasharray:2.0,2.0;" x1="349" x2="1386" y1="973.0625" y2="973.0625"/><text fill="#000000" font-family="sans-serif" font-size="13" lengthAdjust="spacing" textLength="140" x="361" y="968.2061">Return Validation Result</text><polygon fill="#181818" points="1375,999.4141,1385,1003.4141,1375,1007.4141,1379,1003.4141" style="stroke:#181818;stroke-width:1.0;"/><line style="stroke:#181818;stroke-width:1.0;" x1="344" x2="1381" y1="1003.4141" y2="1003.4141"/><text fill="#000000" font-family="sans-serif" font-size="13" lengthAdjust="spacing" textLength="160" x="351" y="998.5576">Check for existing schedule</text><polygon fill="#181818" points="355,1029.7656,345,1033.7656,355,1037.7656,351,1033.7656" style="stroke:#181818;stroke-width:1.0;"/><line style="stroke:#181818;stroke-width:1.0;stroke-dasharray:2.0,2.0;" x1="349" x2="1386" y1="1033.7656" y2="1033.7656"/><text fill="#000000" font-family="sans-serif" font-size="13" lengthAdjust="spacing" textLength="141" x="361" y="1028.9092">Return Existence Check</text><polygon fill="#181818" points="615,1060.1172,625,1064.1172,615,1068.1172,619,1064.1172" style="stroke:#181818;stroke-width:1.0;"/><line style="stroke:#181818;stroke-width:1.0;" x1="344" x2="621" y1="1064.1172" y2="1064.1172"/><text fill="#000000" font-family="sans-serif" font-size="13" lengthAdjust="spacing" textLength="264" x="351" y="1059.2607">GenerateSchedule(schoolId, academicYearId)</text><polygon fill="#181818" points="1375,1106.8203,1385,1110.8203,1375,1114.8203,1379,1110.8203" style="stroke:#181818;stroke-width:1.0;"/><line style="stroke:#181818;stroke-width:1.0;" x1="637" x2="1381" y1="1110.8203" y2="1110.8203"/><text fill="#000000" font-family="sans-serif" font-size="13" lengthAdjust="spacing" textLength="99" x="644" y="1089.6123">Load school data</text><text fill="#000000" font-family="sans-serif" font-size="13" lengthAdjust="spacing" textLength="218" x="644" y="1105.9639">(Groups, Teachers, Classrooms, etc.)</text><polygon fill="#181818" points="648,1137.1719,638,1141.1719,648,1145.1719,644,1141.1719" style="stroke:#181818;stroke-width:1.0;"/><line style="stroke:#181818;stroke-width:1.0;stroke-dasharray:2.0,2.0;" x1="642" x2="1386" y1="1141.1719" y2="1141.1719"/><text fill="#000000" font-family="sans-serif" font-size="13" lengthAdjust="spacing" textLength="113" x="654" y="1136.3154">Return School Data</text><line style="stroke:#181818;stroke-width:1.0;" x1="637" x2="679" y1="1171.5234" y2="1171.5234"/><line style="stroke:#181818;stroke-width:1.0;" x1="679" x2="679" y1="1171.5234" y2="1184.5234"/><line style="stroke:#181818;stroke-width:1.0;" x1="638" x2="679" y1="1184.5234" y2="1184.5234"/><polygon fill="#181818" points="648,1180.5234,638,1184.5234,648,1188.5234,644,1184.5234" style="stroke:#181818;stroke-width:1.0;"/><text fill="#000000" font-family="sans-serif" font-size="13" lengthAdjust="spacing" textLength="209" x="644" y="1166.667">GenerateTimeSlots(config, schoolId)</text><line style="stroke:#181818;stroke-width:1.0;" x1="637" x2="679" y1="1214.875" y2="1214.875"/><line style="stroke:#181818;stroke-width:1.0;" x1="679" x2="679" y1="1214.875" y2="1227.875"/><line style="stroke:#181818;stroke-width:1.0;" x1="638" x2="679" y1="1227.875" y2="1227.875"/><polygon fill="#181818" points="648,1223.875,638,1227.875,648,1231.875,644,1227.875" style="stroke:#181818;stroke-width:1.0;"/><text fill="#000000" font-family="sans-serif" font-size="13" lengthAdjust="spacing" textLength="204" x="644" y="1210.0186">UpdateTimeslots(school, timeslots)</text><polygon fill="#181818" points="848,1254.2266,858,1258.2266,848,1262.2266,852,1258.2266" style="stroke:#181818;stroke-width:1.0;"/><line style="stroke:#181818;stroke-width:1.0;" x1="637" x2="854" y1="1258.2266" y2="1258.2266"/><text fill="#000000" font-family="sans-serif" font-size="13" lengthAdjust="spacing" textLength="142" x="644" y="1253.3701">CreateInitialSchedule(...)</text><line style="stroke:#181818;stroke-width:1.0;" x1="870" x2="912" y1="1288.5781" y2="1288.5781"/><line style="stroke:#181818;stroke-width:1.0;" x1="912" x2="912" y1="1288.5781" y2="1301.5781"/><line style="stroke:#181818;stroke-width:1.0;" x1="871" x2="912" y1="1301.5781" y2="1301.5781"/><polygon fill="#181818" points="881,1297.5781,871,1301.5781,881,1305.5781,877,1301.5781" style="stroke:#181818;stroke-width:1.0;"/><text fill="#000000" font-family="sans-serif" font-size="13" lengthAdjust="spacing" textLength="250" x="877" y="1283.7217">Process teachers, groups, rooms, subjects</text><line style="stroke:#181818;stroke-width:1.0;" x1="870" x2="912" y1="1331.9297" y2="1331.9297"/><line style="stroke:#181818;stroke-width:1.0;" x1="912" x2="912" y1="1331.9297" y2="1344.9297"/><line style="stroke:#181818;stroke-width:1.0;" x1="871" x2="912" y1="1344.9297" y2="1344.9297"/><polygon fill="#181818" points="881,1340.9297,871,1344.9297,881,1348.9297,877,1344.9297" style="stroke:#181818;stroke-width:1.0;"/><text fill="#000000" font-family="sans-serif" font-size="13" lengthAdjust="spacing" textLength="252" x="877" y="1327.0732">Build initial timetable respecting constraints</text><polygon fill="#181818" points="648,1371.2813,638,1375.2813,648,1379.2813,644,1375.2813" style="stroke:#181818;stroke-width:1.0;"/><line style="stroke:#181818;stroke-width:1.0;stroke-dasharray:2.0,2.0;" x1="642" x2="864" y1="1375.2813" y2="1375.2813"/><text fill="#000000" font-family="sans-serif" font-size="13" lengthAdjust="spacing" textLength="130" x="654" y="1370.4248">Return Initial Schedule</text><polygon fill="#181818" points="1124,1401.6328,1134,1405.6328,1124,1409.6328,1128,1405.6328" style="stroke:#181818;stroke-width:1.0;"/><line style="stroke:#181818;stroke-width:1.0;" x1="637" x2="1130" y1="1405.6328" y2="1405.6328"/><text fill="#000000" font-family="sans-serif" font-size="13" lengthAdjust="spacing" textLength="281" x="644" y="1400.7764">Optimize(initialSchedule, iterations, coolingRate)</text><line style="stroke:#181818;stroke-width:1.0;" x1="1146" x2="1188" y1="1435.9844" y2="1435.9844"/><line style="stroke:#181818;stroke-width:1.0;" x1="1188" x2="1188" y1="1435.9844" y2="1448.9844"/><line style="stroke:#181818;stroke-width:1.0;" x1="1147" x2="1188" y1="1448.9844" y2="1448.9844"/><polygon fill="#181818" points="1157,1444.9844,1147,1448.9844,1157,1452.9844,1153,1448.9844" style="stroke:#181818;stroke-width:1.0;"/><text fill="#000000" font-family="sans-serif" font-size="13" lengthAdjust="spacing" textLength="191" x="1153" y="1431.1279">Calculate initial energy (conflicts)</text><path d="M1032,1463.9844 L1105,1463.9844 L1105,1472.3359 L1095,1482.3359 L1032,1482.3359 L1032,1463.9844 " fill="#EEEEEE" style="stroke:#000000;stroke-width:1.5;"/><rect fill="none" height="191.7578" style="stroke:#000000;stroke-width:1.5;" width="355" x="1032" y="1463.9844"/><text fill="#000000" font-family="sans-serif" font-size="13" font-weight="bold" lengthAdjust="spacing" textLength="28" x="1047" y="1478.4795">loop</text><text fill="#000000" font-family="sans-serif" font-size="11" font-weight="bold" lengthAdjust="spacing" textLength="104" x="1120" y="1477.4033">[For each iteration]</text><line style="stroke:#181818;stroke-width:1.0;" x1="1146" x2="1188" y1="1504.6875" y2="1504.6875"/><line style="stroke:#181818;stroke-width:1.0;" x1="1188" x2="1188" y1="1504.6875" y2="1517.6875"/><line style="stroke:#181818;stroke-width:1.0;" x1="1147" x2="1188" y1="1517.6875" y2="1517.6875"/><polygon fill="#181818" points="1157,1513.6875,1147,1517.6875,1157,1521.6875,1153,1517.6875" style="stroke:#181818;stroke-width:1.0;"/><text fill="#000000" font-family="sans-serif" font-size="13" lengthAdjust="spacing" textLength="206" x="1153" y="1499.8311">GenerateNeighbor(currentSchedule)</text><line style="stroke:#181818;stroke-width:1.0;" x1="1146" x2="1188" y1="1548.0391" y2="1548.0391"/><line style="stroke:#181818;stroke-width:1.0;" x1="1188" x2="1188" y1="1548.0391" y2="1561.0391"/><line style="stroke:#181818;stroke-width:1.0;" x1="1147" x2="1188" y1="1561.0391" y2="1561.0391"/><polygon fill="#181818" points="1157,1557.0391,1147,1561.0391,1157,1565.0391,1153,1561.0391" style="stroke:#181818;stroke-width:1.0;"/><text fill="#000000" font-family="sans-serif" font-size="13" lengthAdjust="spacing" textLength="124" x="1153" y="1543.1826">Calculate new energy</text><line style="stroke:#181818;stroke-width:1.0;" x1="1146" x2="1188" y1="1591.3906" y2="1591.3906"/><line style="stroke:#181818;stroke-width:1.0;" x1="1188" x2="1188" y1="1591.3906" y2="1604.3906"/><line style="stroke:#181818;stroke-width:1.0;" x1="1147" x2="1188" y1="1604.3906" y2="1604.3906"/><polygon fill="#181818" points="1157,1600.3906,1147,1604.3906,1157,1608.3906,1153,1604.3906" style="stroke:#181818;stroke-width:1.0;"/><text fill="#000000" font-family="sans-serif" font-size="13" lengthAdjust="spacing" textLength="222" x="1153" y="1586.5342">Accept or reject based on temperature</text><line style="stroke:#181818;stroke-width:1.0;" x1="1146" x2="1188" y1="1634.7422" y2="1634.7422"/><line style="stroke:#181818;stroke-width:1.0;" x1="1188" x2="1188" y1="1634.7422" y2="1647.7422"/><line style="stroke:#181818;stroke-width:1.0;" x1="1147" x2="1188" y1="1647.7422" y2="1647.7422"/><polygon fill="#181818" points="1157,1643.7422,1147,1647.7422,1157,1651.7422,1153,1647.7422" style="stroke:#181818;stroke-width:1.0;"/><text fill="#000000" font-family="sans-serif" font-size="13" lengthAdjust="spacing" textLength="114" x="1153" y="1629.8857">Update temperature</text><polygon fill="#181818" points="648,1681.0938,638,1685.0938,648,1689.0938,644,1685.0938" style="stroke:#181818;stroke-width:1.0;"/><line style="stroke:#181818;stroke-width:1.0;stroke-dasharray:2.0,2.0;" x1="642" x2="1140" y1="1685.0938" y2="1685.0938"/><text fill="#000000" font-family="sans-serif" font-size="13" lengthAdjust="spacing" textLength="159" x="654" y="1680.2373">Return Optimized Schedule</text><polygon fill="#181818" points="355,1711.4453,345,1715.4453,355,1719.4453,351,1715.4453" style="stroke:#181818;stroke-width:1.0;"/><line style="stroke:#181818;stroke-width:1.0;stroke-dasharray:2.0,2.0;" x1="349" x2="631" y1="1715.4453" y2="1715.4453"/><text fill="#000000" font-family="sans-serif" font-size="13" lengthAdjust="spacing" textLength="133" x="361" y="1710.5889">Return ScheduleResult</text><polygon fill="#181818" points="1375,1741.7969,1385,1745.7969,1375,1749.7969,1379,1745.7969" style="stroke:#181818;stroke-width:1.0;"/><line style="stroke:#181818;stroke-width:1.0;" x1="344" x2="1381" y1="1745.7969" y2="1745.7969"/><text fill="#000000" font-family="sans-serif" font-size="13" lengthAdjust="spacing" textLength="205" x="351" y="1740.9404">Save Lessons from ScheduleResult</text><polygon fill="#181818" points="355,1772.1484,345,1776.1484,355,1780.1484,351,1776.1484" style="stroke:#181818;stroke-width:1.0;"/><line style="stroke:#181818;stroke-width:1.0;stroke-dasharray:2.0,2.0;" x1="349" x2="1386" y1="1776.1484" y2="1776.1484"/><text fill="#000000" font-family="sans-serif" font-size="13" lengthAdjust="spacing" textLength="96" x="361" y="1771.292">Save Successful</text><polygon fill="#181818" points="62,1802.5,52,1806.5,62,1810.5,58,1806.5" style="stroke:#181818;stroke-width:1.0;"/><line style="stroke:#181818;stroke-width:1.0;stroke-dasharray:2.0,2.0;" x1="56" x2="338" y1="1806.5" y2="1806.5"/><text fill="#000000" font-family="sans-serif" font-size="13" lengthAdjust="spacing" textLength="204" x="68" y="1801.6436">Return Schedule Generation Result</text><rect fill="#EEEEEE" height="3" style="stroke:#EEEEEE;stroke-width:1.0;" width="1478" x="0" y="1835.6758"/><line style="stroke:#000000;stroke-width:1.0;" x1="0" x2="1478" y1="1835.6758" y2="1835.6758"/><line style="stroke:#000000;stroke-width:1.0;" x1="0" x2="1478" y1="1838.6758" y2="1838.6758"/><rect fill="#EEEEEE" height="24.3516" style="stroke:#000000;stroke-width:2.0;" width="135" x="671.5" y="1824.5"/><text fill="#000000" font-family="sans-serif" font-size="13" font-weight="bold" lengthAdjust="spacing" textLength="117" x="677.5" y="1841.9951">Retrieve Schedule</text><polygon fill="#181818" points="322,1877.2031,332,1881.2031,322,1885.2031,326,1881.2031" style="stroke:#181818;stroke-width:1.0;"/><line style="stroke:#181818;stroke-width:1.0;" x1="51" x2="328" y1="1881.2031" y2="1881.2031"/><text fill="#000000" font-family="sans-serif" font-size="13" lengthAdjust="spacing" textLength="232" x="58" y="1876.3467">GetSchedule(schoolId, academicYearId)</text><polygon fill="#181818" points="1375,1923.9063,1385,1927.9063,1375,1931.9063,1379,1927.9063" style="stroke:#181818;stroke-width:1.0;"/><line style="stroke:#181818;stroke-width:1.0;" x1="344" x2="1381" y1="1927.9063" y2="1927.9063"/><text fill="#000000" font-family="sans-serif" font-size="13" lengthAdjust="spacing" textLength="173" x="351" y="1906.6982">Get Lessons with related data</text><text fill="#000000" font-family="sans-serif" font-size="13" lengthAdjust="spacing" textLength="219" x="351" y="1923.0498">(Teacher, Classroom, Subject, Group)</text><polygon fill="#181818" points="355,1954.2578,345,1958.2578,355,1962.2578,351,1958.2578" style="stroke:#181818;stroke-width:1.0;"/><line style="stroke:#181818;stroke-width:1.0;stroke-dasharray:2.0,2.0;" x1="349" x2="1386" y1="1958.2578" y2="1958.2578"/><text fill="#000000" font-family="sans-serif" font-size="13" lengthAdjust="spacing" textLength="127" x="361" y="1953.4014">Return Schedule Data</text><line style="stroke:#181818;stroke-width:1.0;" x1="344" x2="386" y1="1988.6094" y2="1988.6094"/><line style="stroke:#181818;stroke-width:1.0;" x1="386" x2="386" y1="1988.6094" y2="2001.6094"/><line style="stroke:#181818;stroke-width:1.0;" x1="345" x2="386" y1="2001.6094" y2="2001.6094"/><polygon fill="#181818" points="355,1997.6094,345,2001.6094,355,2005.6094,351,2001.6094" style="stroke:#181818;stroke-width:1.0;"/><text fill="#000000" font-family="sans-serif" font-size="13" lengthAdjust="spacing" textLength="148" x="351" y="1983.7529">FormatSchedule(lessons)</text><polygon fill="#181818" points="62,2027.9609,52,2031.9609,62,2035.9609,58,2031.9609" style="stroke:#181818;stroke-width:1.0;"/><line style="stroke:#181818;stroke-width:1.0;stroke-dasharray:2.0,2.0;" x1="56" x2="338" y1="2031.9609" y2="2031.9609"/><text fill="#000000" font-family="sans-serif" font-size="13" lengthAdjust="spacing" textLength="159" x="68" y="2027.1045">Return Formatted Schedule</text><rect fill="#EEEEEE" height="3" style="stroke:#EEEEEE;stroke-width:1.0;" width="1478" x="0" y="2061.1367"/><line style="stroke:#000000;stroke-width:1.0;" x1="0" x2="1478" y1="2061.1367" y2="2061.1367"/><line style="stroke:#000000;stroke-width:1.0;" x1="0" x2="1478" y1="2064.1367" y2="2064.1367"/><rect fill="#EEEEEE" height="24.3516" style="stroke:#000000;stroke-width:2.0;" width="142" x="668" y="2049.9609"/><text fill="#000000" font-family="sans-serif" font-size="13" font-weight="bold" lengthAdjust="spacing" textLength="124" x="674" y="2067.4561">View Subject Hours</text><polygon fill="#181818" points="322,2102.6641,332,2106.6641,322,2110.6641,326,2106.6641" style="stroke:#181818;stroke-width:1.0;"/><line style="stroke:#181818;stroke-width:1.0;" x1="51" x2="328" y1="2106.6641" y2="2106.6641"/><text fill="#000000" font-family="sans-serif" font-size="13" lengthAdjust="spacing" textLength="155" x="58" y="2101.8076">GetSubjectHours(schoolId)</text><polygon fill="#181818" points="1375,2133.0156,1385,2137.0156,1375,2141.0156,1379,2137.0156" style="stroke:#181818;stroke-width:1.0;"/><line style="stroke:#181818;stroke-width:1.0;" x1="344" x2="1381" y1="2137.0156" y2="2137.0156"/><text fill="#000000" font-family="sans-serif" font-size="13" lengthAdjust="spacing" textLength="305" x="351" y="2132.1592">Get LevelSubjectHours with Subject and SchoolLevel</text><polygon fill="#181818" points="355,2163.3672,345,2167.3672,355,2171.3672,351,2167.3672" style="stroke:#181818;stroke-width:1.0;"/><line style="stroke:#181818;stroke-width:1.0;stroke-dasharray:2.0,2.0;" x1="349" x2="1386" y1="2167.3672" y2="2167.3672"/><text fill="#000000" font-family="sans-serif" font-size="13" lengthAdjust="spacing" textLength="107" x="361" y="2162.5107">Return Hours Data</text><polygon fill="#181818" points="62,2193.7188,52,2197.7188,62,2201.7188,58,2197.7188" style="stroke:#181818;stroke-width:1.0;"/><line style="stroke:#181818;stroke-width:1.0;stroke-dasharray:2.0,2.0;" x1="56" x2="338" y1="2197.7188" y2="2197.7188"/><text fill="#000000" font-family="sans-serif" font-size="13" lengthAdjust="spacing" textLength="124" x="68" y="2192.8623">Return Subject Hours</text><!--SRC=[lLVDRjiu4BxhAOYSB43D0mJ80agSUWkaxIBk5bYW5reSs-nIf9Qat7gVVeUaA56oxBYBeZcHyinmvfkVRq8hgpIvMLTxfGGfMStb3Q4cdBA6Qiihtb1flGomLi2ZabOh8K1xoU4w5Y_PWSeAM5GBqlrjBBpI0Emu5frycpZ3wrPG2woK4gZWSlUniRpc_yPtolwUCMhfXXeWDyjuMfHDizmur-6xpRt6yY7BBBS2UX_9Uohf3ch01__GgW9ZoEAfReJYX06nK3ScpxBx-q43BMxvhjNKSYN9_NsMUI39czyIdEvwCGYuH_M5yTTth22LbyWpMbb-m3XJc8UZixjyk2Chi2IOofOFvCtajHUmhPPHu5JxpuQv5yQ-11U_oCLxfIN2kxO8Vq6wsvD47ykj1IsLak6tBxB_u7zUqgFvkDqMPBrNshfRFkVTcXxmxRPoy6xRiNyewl5BOqY1pXZC0UHJuY1fDr-XikHtrMfpFXiesabwmIGB6lvfmLXpRHvUe5OOpTDtRYoYH9xX02ArFQDJCaO-mBTJMSJUVojY74K8fC1Yv4fpU_m9U0Ovl9f6IGEl0Fe9VzsZeV90kQ0RBj29YxXs2gdymePl3b-QVF-HMez-VEDsdph3mLneW4xhV0VCU8j9mCh55BWI_yHhA0WMjplyKl1N845tJHeQu2pgKNHcgD2ACgXvzHTGXFzQm3_ZUFNm14E4IjPR8aSqTG7oJjSDGuoo5NR6_kCUgh_95ca8Oj-OplSBbdsF0H9CqCycXdlQ-7-03AoJzSVexxEYB6BXg0LBPALLss1ZTWM4fqT1ZT5ArNW6MztsrP8uDfhBn77JvBMP85pbhOMoPX4OeY0ncloiRgXkfscyPj0eY8rVyicx4-R556b02-yaTXWTsEhszZQ1R4hNa_kitSYgjiTjro7PGMV2v3DNMNjekM241ozzTCZss2eQ-mkDkC92q8pLbCivaxFPwOBkVqcRT1ho90F32d97ud71no0MX5i8wu9nhA_SAlE2njDYJ7QPv7ponYCLbL-AUWnSqUoEnDUAu9NBj52g8MzTio7am-CPmRzBncC1VW2-ss-KNbIjrhWPnK3oLoqCxacak-3QgqebZiZ64lHNW-TojxunWlF4hL_E8zoYNhNIpVTK1IGRWpcR_VWxcyr_cfXiN4Zp-vSNw0PXQcUeeDFnw2db6Ri4AuHijQgdXgwWeIkNgYx7oRG-pqYegpaShcCa-zF8oB5_1CEplmR_Rq2SnDq4JWPmiZxvCPrVNf53B7uOZrzFnR5_QZe49O93-MMOWv8zKqiJU3zpx94hzzVLcVtrnp2TR9y1tUY1u_p0Krxm0eH1-GI_cUKdYUqC4Fy1]--></g></svg>